G04 #@! TF.FileFunction,Copper,L1,Top,Signal*
%FSLAX46Y46*%
G04 Gerber Fmt 4.6, Leading zero omitted, Abs format (unit mm)*
G04 Created by KiCad (PCBNEW 4.0.6) date Tuesday, 13 February 2018 20:17:47*
%MOMM*%
%LPD*%
G01*
G04 APERTURE LIST*
%ADD10C,0.100000*%
%ADD11C,0.300000*%
%ADD12O,1.727200X1.727200*%
%ADD13R,1.600000X2.000000*%
%ADD14R,2.000000X1.600000*%
%ADD15R,2.000000X2.500000*%
%ADD16C,1.501140*%
%ADD17R,2.500000X3.750000*%
%ADD18R,1.800860X1.597660*%
%ADD19R,1.900000X0.800000*%
%ADD20R,1.800860X3.500120*%
%ADD21R,3.500120X1.800860*%
%ADD22R,3.600000X2.100000*%
%ADD23O,3.600000X2.100000*%
%ADD24R,2.000000X1.700000*%
%ADD25R,0.800000X1.900000*%
%ADD26R,1.600000X0.550000*%
%ADD27R,0.550000X1.600000*%
%ADD28R,1.560000X0.650000*%
%ADD29R,1.550000X0.600000*%
%ADD30R,4.600000X1.390000*%
%ADD31R,9.400000X10.800000*%
%ADD32R,2.700000X3.750000*%
%ADD33C,0.800000*%
%ADD34C,0.400000*%
G04 APERTURE END LIST*
D10*
D11*
X159976857Y-80744143D02*
X160191143Y-80815571D01*
X160548286Y-80815571D01*
X160691143Y-80744143D01*
X160762572Y-80672714D01*
X160834000Y-80529857D01*
X160834000Y-80387000D01*
X160762572Y-80244143D01*
X160691143Y-80172714D01*
X160548286Y-80101286D01*
X160262572Y-80029857D01*
X160119714Y-79958429D01*
X160048286Y-79887000D01*
X159976857Y-79744143D01*
X159976857Y-79601286D01*
X160048286Y-79458429D01*
X160119714Y-79387000D01*
X160262572Y-79315571D01*
X160619714Y-79315571D01*
X160834000Y-79387000D01*
X162476857Y-80958429D02*
X162334000Y-80887000D01*
X162191143Y-80744143D01*
X161976857Y-80529857D01*
X161834000Y-80458429D01*
X161691143Y-80458429D01*
X161762571Y-80815571D02*
X161619714Y-80744143D01*
X161476857Y-80601286D01*
X161405428Y-80315571D01*
X161405428Y-79815571D01*
X161476857Y-79529857D01*
X161619714Y-79387000D01*
X161762571Y-79315571D01*
X162048285Y-79315571D01*
X162191143Y-79387000D01*
X162334000Y-79529857D01*
X162405428Y-79815571D01*
X162405428Y-80315571D01*
X162334000Y-80601286D01*
X162191143Y-80744143D01*
X162048285Y-80815571D01*
X161762571Y-80815571D01*
X163262572Y-79958429D02*
X163119714Y-79887000D01*
X163048286Y-79815571D01*
X162976857Y-79672714D01*
X162976857Y-79601286D01*
X163048286Y-79458429D01*
X163119714Y-79387000D01*
X163262572Y-79315571D01*
X163548286Y-79315571D01*
X163691143Y-79387000D01*
X163762572Y-79458429D01*
X163834000Y-79601286D01*
X163834000Y-79672714D01*
X163762572Y-79815571D01*
X163691143Y-79887000D01*
X163548286Y-79958429D01*
X163262572Y-79958429D01*
X163119714Y-80029857D01*
X163048286Y-80101286D01*
X162976857Y-80244143D01*
X162976857Y-80529857D01*
X163048286Y-80672714D01*
X163119714Y-80744143D01*
X163262572Y-80815571D01*
X163548286Y-80815571D01*
X163691143Y-80744143D01*
X163762572Y-80672714D01*
X163834000Y-80529857D01*
X163834000Y-80244143D01*
X163762572Y-80101286D01*
X163691143Y-80029857D01*
X163548286Y-79958429D01*
X164476857Y-80815571D02*
X164476857Y-79315571D01*
X165334000Y-80815571D02*
X164691143Y-79958429D01*
X165334000Y-79315571D02*
X164476857Y-80172714D01*
X166476857Y-80029857D02*
X165976857Y-80029857D01*
X165976857Y-80815571D02*
X165976857Y-79315571D01*
X166691143Y-79315571D01*
X167262571Y-80815571D02*
X167262571Y-79315571D01*
X167262571Y-80029857D02*
X168119714Y-80029857D01*
X168119714Y-80815571D02*
X168119714Y-79315571D01*
D12*
X212090000Y-79629000D03*
X214630000Y-79629000D03*
X214630000Y-77089000D03*
X212090000Y-77089000D03*
X214630000Y-74549000D03*
X199263000Y-102489000D03*
X194183000Y-102489000D03*
X191643000Y-102489000D03*
X189103000Y-102489000D03*
X186563000Y-102489000D03*
X184023000Y-102489000D03*
X181483000Y-102489000D03*
X178943000Y-102489000D03*
X211963000Y-54229000D03*
X209423000Y-54229000D03*
X206883000Y-54229000D03*
X204343000Y-54229000D03*
X201803000Y-54229000D03*
X199263000Y-54229000D03*
X196723000Y-54229000D03*
X194183000Y-54229000D03*
X174879000Y-54229000D03*
X190119000Y-54229000D03*
X187579000Y-54229000D03*
X185039000Y-54229000D03*
X167259000Y-54229000D03*
X169799000Y-54229000D03*
X172339000Y-54229000D03*
X177419000Y-54229000D03*
X179959000Y-54229000D03*
X182499000Y-54229000D03*
X176403000Y-102489000D03*
X201803000Y-102489000D03*
X204343000Y-102489000D03*
X206883000Y-102489000D03*
X209423000Y-102489000D03*
X211963000Y-102489000D03*
X212090000Y-74549000D03*
D13*
X180340000Y-75406000D03*
X180340000Y-71406000D03*
X175895000Y-75406000D03*
X175895000Y-71406000D03*
X191008000Y-91726000D03*
X191008000Y-95726000D03*
D14*
X188055000Y-99695000D03*
X184055000Y-99695000D03*
D13*
X168656000Y-90138000D03*
X168656000Y-86138000D03*
D15*
X206978000Y-80645000D03*
X202978000Y-80645000D03*
D16*
X184122060Y-82169000D03*
X189003940Y-82169000D03*
D13*
X196088000Y-74962000D03*
X196088000Y-78962000D03*
X196088000Y-67850000D03*
X196088000Y-71850000D03*
D17*
X175514000Y-67006000D03*
X175514000Y-60756000D03*
X199771000Y-76531000D03*
X199771000Y-70281000D03*
D14*
X181261000Y-86233000D03*
X185261000Y-86233000D03*
X181388000Y-63754000D03*
X185388000Y-63754000D03*
X192500000Y-86233000D03*
X188500000Y-86233000D03*
D13*
X168656000Y-97377000D03*
X168656000Y-93377000D03*
D17*
X172212000Y-92025000D03*
X172212000Y-85775000D03*
D18*
X152019000Y-81892140D03*
X152019000Y-84731860D03*
D19*
X163298000Y-74356000D03*
X163298000Y-72456000D03*
X160298000Y-73406000D03*
D20*
X172085000Y-97068640D03*
X172085000Y-102067360D03*
D21*
X156423360Y-102108000D03*
X151424640Y-102108000D03*
D22*
X152908000Y-55880000D03*
D23*
X152908000Y-60880000D03*
X152908000Y-65880000D03*
X152908000Y-70880000D03*
X152908000Y-75880000D03*
D24*
X185388000Y-66548000D03*
X181388000Y-66548000D03*
X159861000Y-84709000D03*
X155861000Y-84709000D03*
D25*
X202758000Y-75668000D03*
X204658000Y-75668000D03*
X203708000Y-72668000D03*
D26*
X183964000Y-70987000D03*
X183964000Y-71787000D03*
X183964000Y-72587000D03*
X183964000Y-73387000D03*
X183964000Y-74187000D03*
X183964000Y-74987000D03*
X183964000Y-75787000D03*
X183964000Y-76587000D03*
D27*
X185414000Y-78037000D03*
X186214000Y-78037000D03*
X187014000Y-78037000D03*
X187814000Y-78037000D03*
X188614000Y-78037000D03*
X189414000Y-78037000D03*
X190214000Y-78037000D03*
X191014000Y-78037000D03*
D26*
X192464000Y-76587000D03*
X192464000Y-75787000D03*
X192464000Y-74987000D03*
X192464000Y-74187000D03*
X192464000Y-73387000D03*
X192464000Y-72587000D03*
X192464000Y-71787000D03*
X192464000Y-70987000D03*
D27*
X191014000Y-69537000D03*
X190214000Y-69537000D03*
X189414000Y-69537000D03*
X188614000Y-69537000D03*
X187814000Y-69537000D03*
X187014000Y-69537000D03*
X186214000Y-69537000D03*
X185414000Y-69537000D03*
D28*
X186770000Y-96708000D03*
X186770000Y-95758000D03*
X186770000Y-94808000D03*
X184070000Y-94808000D03*
X184070000Y-96708000D03*
D29*
X172880000Y-75311000D03*
X172880000Y-74041000D03*
X172880000Y-72771000D03*
X172880000Y-71501000D03*
X167480000Y-71501000D03*
X167480000Y-72771000D03*
X167480000Y-74041000D03*
X167480000Y-75311000D03*
D30*
X164468000Y-93345000D03*
D31*
X155318000Y-93345000D03*
D30*
X164468000Y-90805000D03*
X164468000Y-95885000D03*
D32*
X177292000Y-96993000D03*
X177292000Y-89443000D03*
D33*
X184912000Y-57277000D03*
X177800000Y-57023000D03*
X185420000Y-63119000D03*
X198374000Y-63119000D03*
X207518000Y-77724000D03*
X181864000Y-94234000D03*
X181864000Y-92075000D03*
X179197000Y-82042000D03*
X176911000Y-82042000D03*
X188087000Y-95758000D03*
X191008000Y-91726000D03*
X175514000Y-60756000D03*
X181388000Y-63754000D03*
X196088000Y-67850000D03*
X199771000Y-70281000D03*
X203708000Y-72668000D03*
X192500000Y-86233000D03*
X196088000Y-74962000D03*
X180340000Y-75406000D03*
X181261000Y-86233000D03*
X175895000Y-75406000D03*
X167480000Y-75311000D03*
X160298000Y-73406000D03*
X172212000Y-85775000D03*
X168656000Y-86138000D03*
X177292000Y-89443000D03*
X168656000Y-93377000D03*
X157734000Y-93345000D03*
X157734000Y-89789000D03*
X153035000Y-89789000D03*
X153035000Y-93345000D03*
X153035000Y-96774000D03*
X157607000Y-96774000D03*
X155321000Y-96774000D03*
X155321000Y-89789000D03*
X155318000Y-93345000D03*
X179324000Y-63373000D03*
X179324000Y-65913000D03*
X206629000Y-61849000D03*
X199517000Y-59436000D03*
X179959000Y-68453000D03*
X211709000Y-61849000D03*
X200660000Y-92075000D03*
X209296000Y-92075000D03*
X200660000Y-93980000D03*
X209296000Y-93980000D03*
X214630000Y-83058000D03*
X206629000Y-83058000D03*
X200533000Y-56896000D03*
X182880000Y-58420000D03*
X200533000Y-58420000D03*
X206629000Y-60452000D03*
X210566000Y-60452000D03*
X179197000Y-77470000D03*
X176911000Y-77470000D03*
X179197000Y-78613000D03*
X176911000Y-78613000D03*
X194183000Y-72517000D03*
X194183000Y-89535000D03*
X209296000Y-90424000D03*
X204597000Y-90551000D03*
X192024000Y-60198000D03*
X180594000Y-60833000D03*
X178181000Y-62103000D03*
X178181000Y-64516000D03*
X178181000Y-67183000D03*
X178943000Y-69215000D03*
X209296000Y-89154000D03*
X203708000Y-89154000D03*
X181356000Y-61849000D03*
X179197000Y-79756000D03*
X176911000Y-79756000D03*
X186055000Y-61849000D03*
X192532000Y-56261000D03*
X176911000Y-80899000D03*
X179197000Y-80899000D03*
X180975000Y-57912000D03*
X178943000Y-57912000D03*
X196977000Y-62103000D03*
X188595000Y-62103000D03*
X151384000Y-101981000D03*
D11*
X172212000Y-57023000D02*
X177800000Y-57023000D01*
X169164000Y-60071000D02*
X172212000Y-57023000D01*
X184912000Y-63278000D02*
X184912000Y-57277000D01*
X169164000Y-60071000D02*
X169164000Y-67945000D01*
X185420000Y-63119000D02*
X185388000Y-63151000D01*
X203327000Y-63119000D02*
X198374000Y-63119000D01*
X205994000Y-65786000D02*
X203327000Y-63119000D01*
X205994000Y-76200000D02*
X205994000Y-65786000D01*
X207518000Y-77724000D02*
X205994000Y-76200000D01*
X185388000Y-63151000D02*
X185388000Y-63754000D01*
X184912000Y-63278000D02*
X185388000Y-63754000D01*
X169291000Y-77978000D02*
X169164000Y-67945000D01*
X181483000Y-101981000D02*
X181864000Y-101600000D01*
X181864000Y-101600000D02*
X181864000Y-94234000D01*
X181864000Y-92075000D02*
X179324000Y-89535000D01*
X179324000Y-89535000D02*
X179324000Y-82169000D01*
X179324000Y-82169000D02*
X179197000Y-82042000D01*
X176911000Y-82042000D02*
X173355000Y-82042000D01*
X173355000Y-82042000D02*
X169291000Y-77978000D01*
X169164000Y-67945000D02*
X169164000Y-67818000D01*
X185388000Y-66548000D02*
X185388000Y-63754000D01*
X186214000Y-69537000D02*
X186214000Y-67374000D01*
X186214000Y-67374000D02*
X185388000Y-66548000D01*
X186214000Y-66612000D02*
X186150000Y-66548000D01*
X181483000Y-102489000D02*
X181483000Y-101981000D01*
D34*
X186770000Y-95758000D02*
X188087000Y-95758000D01*
X192464000Y-74187000D02*
X195313000Y-74187000D01*
X195313000Y-74187000D02*
X196088000Y-74962000D01*
X183964000Y-74187000D02*
X181559000Y-74187000D01*
X181559000Y-74187000D02*
X180340000Y-75406000D01*
X172880000Y-74041000D02*
X174530000Y-74041000D01*
X174530000Y-74041000D02*
X175895000Y-75406000D01*
X188055000Y-99695000D02*
X189103000Y-100743000D01*
X189103000Y-100743000D02*
X189103000Y-102489000D01*
X172212000Y-85775000D02*
X171849000Y-86138000D01*
X159861000Y-84709000D02*
X159861000Y-86138000D01*
X159861000Y-86138000D02*
X159004000Y-86995000D01*
X159004000Y-86995000D02*
X159004000Y-89659000D01*
X159004000Y-89659000D02*
X155318000Y-93345000D01*
X157734000Y-93345000D02*
X155318000Y-93345000D01*
X157734000Y-89789000D02*
X155318000Y-92205000D01*
X155318000Y-92205000D02*
X155318000Y-93345000D01*
X153035000Y-89789000D02*
X155318000Y-92072000D01*
X155318000Y-92072000D02*
X155318000Y-93345000D01*
X153035000Y-93345000D02*
X155318000Y-93345000D01*
X153035000Y-96774000D02*
X155318000Y-94491000D01*
X155318000Y-94491000D02*
X155318000Y-93345000D01*
X157607000Y-96774000D02*
X155318000Y-94485000D01*
X155318000Y-94485000D02*
X155318000Y-93345000D01*
X155321000Y-96774000D02*
X155318000Y-96771000D01*
X155318000Y-96771000D02*
X155318000Y-93345000D01*
X155321000Y-89789000D02*
X155318000Y-89792000D01*
X155318000Y-89792000D02*
X155318000Y-93345000D01*
X168656000Y-93377000D02*
X168624000Y-93345000D01*
X168624000Y-93345000D02*
X164468000Y-93345000D01*
X155318000Y-93345000D02*
X164468000Y-93345000D01*
D11*
X179324000Y-65913000D02*
X179324000Y-63373000D01*
X206629000Y-61849000D02*
X206248000Y-61468000D01*
X206248000Y-61468000D02*
X201549000Y-61468000D01*
X201549000Y-61468000D02*
X199517000Y-59436000D01*
X179959000Y-68453000D02*
X181864000Y-68453000D01*
X181864000Y-68453000D02*
X182372000Y-68961000D01*
X182372000Y-68961000D02*
X182372000Y-71247000D01*
X182372000Y-71247000D02*
X182912000Y-71787000D01*
X182912000Y-71787000D02*
X183964000Y-71787000D01*
X214630000Y-77089000D02*
X213360000Y-75819000D01*
X213360000Y-75819000D02*
X213360000Y-73025000D01*
X213360000Y-73025000D02*
X211709000Y-71374000D01*
X211709000Y-71374000D02*
X211709000Y-61849000D01*
X211709000Y-61849000D02*
X211709000Y-54483000D01*
X211709000Y-54483000D02*
X211963000Y-54229000D01*
X209423000Y-54229000D02*
X209423000Y-74422000D01*
X209423000Y-74422000D02*
X212090000Y-77089000D01*
X194310000Y-85217000D02*
X194310000Y-85979000D01*
X194310000Y-85979000D02*
X200406000Y-92075000D01*
X200406000Y-92075000D02*
X200660000Y-92075000D01*
X209296000Y-92075000D02*
X213360000Y-88011000D01*
X213360000Y-88011000D02*
X213360000Y-78359000D01*
X213360000Y-78359000D02*
X212090000Y-77089000D01*
X192938400Y-84429600D02*
X193217800Y-84709000D01*
X193217800Y-84709000D02*
X193802000Y-84709000D01*
X193802000Y-84709000D02*
X194310000Y-85217000D01*
X187814000Y-78037000D02*
X187814000Y-79305200D01*
X187814000Y-79305200D02*
X192938400Y-84429600D01*
D34*
X186770000Y-96708000D02*
X190026000Y-96708000D01*
X190026000Y-96708000D02*
X191008000Y-95726000D01*
X186563000Y-102489000D02*
X186055000Y-101981000D01*
X186055000Y-101981000D02*
X186055000Y-98806000D01*
X188690000Y-98044000D02*
X191008000Y-95726000D01*
X186817000Y-98044000D02*
X188690000Y-98044000D01*
X186055000Y-98806000D02*
X186817000Y-98044000D01*
X186770000Y-94808000D02*
X190090000Y-94808000D01*
X190090000Y-94808000D02*
X191008000Y-95726000D01*
X191548000Y-95726000D02*
X192786000Y-94488000D01*
X200279000Y-93980000D02*
X200660000Y-93980000D01*
X209296000Y-93980000D02*
X214630000Y-88646000D01*
X214630000Y-88646000D02*
X214630000Y-83058000D01*
X192786000Y-94488000D02*
X192786000Y-88773000D01*
X192786000Y-88773000D02*
X192913000Y-88646000D01*
X192913000Y-88646000D02*
X194945000Y-88646000D01*
X194945000Y-88646000D02*
X195961000Y-89662000D01*
X195961000Y-89662000D02*
X200279000Y-93980000D01*
X191548000Y-95726000D02*
X191008000Y-95726000D01*
X180721000Y-93218000D02*
X188500000Y-93218000D01*
X188500000Y-93218000D02*
X191008000Y-95726000D01*
X175895000Y-71406000D02*
X175895000Y-67387000D01*
X175895000Y-67387000D02*
X175514000Y-67006000D01*
X214630000Y-74549000D02*
X214757000Y-74549000D01*
X214757000Y-74549000D02*
X216027000Y-75819000D01*
X216027000Y-75819000D02*
X216027000Y-81661000D01*
X216027000Y-81661000D02*
X214630000Y-83058000D01*
X206629000Y-83058000D02*
X206978000Y-82709000D01*
X206978000Y-82709000D02*
X206978000Y-80645000D01*
X181388000Y-66548000D02*
X180213000Y-66548000D01*
X180213000Y-66548000D02*
X178054000Y-68707000D01*
X178054000Y-68707000D02*
X178054000Y-73565000D01*
X183964000Y-73387000D02*
X182321000Y-73387000D01*
X182321000Y-73387000D02*
X180340000Y-71406000D01*
X178054000Y-73565000D02*
X180213000Y-71406000D01*
X180213000Y-71406000D02*
X180340000Y-71406000D01*
X172212000Y-92025000D02*
X174752000Y-89485000D01*
X174752000Y-89485000D02*
X174752000Y-86868000D01*
X174752000Y-86868000D02*
X178054000Y-83566000D01*
X178054000Y-83566000D02*
X178054000Y-73565000D01*
X178054000Y-73565000D02*
X175895000Y-71406000D01*
X172880000Y-72771000D02*
X174530000Y-72771000D01*
X174530000Y-72771000D02*
X175895000Y-71406000D01*
X172212000Y-92025000D02*
X173405000Y-93218000D01*
X173405000Y-93218000D02*
X180721000Y-93218000D01*
X180721000Y-93218000D02*
X180721000Y-100711000D01*
X180721000Y-100711000D02*
X178943000Y-102489000D01*
X168656000Y-90138000D02*
X170325000Y-90138000D01*
X170325000Y-90138000D02*
X172212000Y-92025000D01*
X164468000Y-90805000D02*
X167989000Y-90805000D01*
X167989000Y-90805000D02*
X168656000Y-90138000D01*
X194183000Y-102489000D02*
X194183000Y-103505000D01*
X194183000Y-103505000D02*
X193675000Y-104013000D01*
X193675000Y-104013000D02*
X174030640Y-104013000D01*
X174030640Y-104013000D02*
X172085000Y-102067360D01*
D11*
X197739000Y-70199000D02*
X196088000Y-71850000D01*
X197739000Y-65405000D02*
X197739000Y-70199000D01*
X195580000Y-63246000D02*
X197739000Y-65405000D01*
X195580000Y-61849000D02*
X195580000Y-63246000D01*
X200533000Y-56896000D02*
X195580000Y-61849000D01*
X204658000Y-75668000D02*
X204658000Y-75118000D01*
X204658000Y-75118000D02*
X203708000Y-74168000D01*
X203708000Y-74168000D02*
X201930000Y-74168000D01*
X201930000Y-74168000D02*
X201168000Y-73406000D01*
X201168000Y-73406000D02*
X197644000Y-73406000D01*
X197644000Y-73406000D02*
X196088000Y-71850000D01*
X196564000Y-71850000D02*
X196088000Y-71850000D01*
X192464000Y-73387000D02*
X194551000Y-73387000D01*
X194551000Y-73387000D02*
X196088000Y-71850000D01*
X212090000Y-74549000D02*
X210566000Y-73025000D01*
X183007000Y-58547000D02*
X183007000Y-62103000D01*
X182880000Y-58420000D02*
X183007000Y-58547000D01*
X202565000Y-60452000D02*
X200533000Y-58420000D01*
X206629000Y-60452000D02*
X202565000Y-60452000D01*
X210566000Y-73025000D02*
X210566000Y-60452000D01*
X183964000Y-70987000D02*
X183007000Y-70030000D01*
X183007000Y-70030000D02*
X183007000Y-62103000D01*
X183007000Y-62103000D02*
X179959000Y-59055000D01*
X179959000Y-59055000D02*
X179959000Y-54229000D01*
D34*
X202758000Y-75668000D02*
X202758000Y-80425000D01*
X202758000Y-80425000D02*
X202978000Y-80645000D01*
X202758000Y-75668000D02*
X200634000Y-75668000D01*
X200634000Y-75668000D02*
X199771000Y-76531000D01*
X196088000Y-78962000D02*
X197340000Y-78962000D01*
X197340000Y-78962000D02*
X199771000Y-76531000D01*
X192464000Y-74987000D02*
X194240000Y-74987000D01*
X194240000Y-74987000D02*
X194691000Y-75438000D01*
X194691000Y-75438000D02*
X194691000Y-77565000D01*
X194691000Y-77565000D02*
X196088000Y-78962000D01*
D11*
X183964000Y-74987000D02*
X182188000Y-74987000D01*
X182188000Y-74987000D02*
X181737000Y-75438000D01*
X181737000Y-75438000D02*
X181737000Y-76581000D01*
X181737000Y-76581000D02*
X180848000Y-77470000D01*
X180848000Y-77470000D02*
X179197000Y-77470000D01*
X176911000Y-77470000D02*
X173609000Y-77470000D01*
X173609000Y-77470000D02*
X172880000Y-76741000D01*
X172880000Y-76741000D02*
X172880000Y-75311000D01*
X183964000Y-75787000D02*
X182785000Y-75787000D01*
X182785000Y-75787000D02*
X182573002Y-75787000D01*
X182573002Y-75787000D02*
X182372000Y-75988002D01*
X182372000Y-75988002D02*
X182372000Y-77089000D01*
X182372000Y-77089000D02*
X180848000Y-78613000D01*
X180848000Y-78613000D02*
X179197000Y-78613000D01*
X176911000Y-78613000D02*
X173609000Y-78613000D01*
X173609000Y-78613000D02*
X171323000Y-76327000D01*
X171323000Y-76327000D02*
X171323000Y-71882000D01*
X171323000Y-71882000D02*
X171704000Y-71501000D01*
X171704000Y-71501000D02*
X172880000Y-71501000D01*
X192464000Y-72587000D02*
X194113000Y-72587000D01*
X194113000Y-72587000D02*
X194183000Y-72517000D01*
X199263000Y-102489000D02*
X199263000Y-94615000D01*
X194183000Y-72517000D02*
X194126000Y-72460000D01*
X199263000Y-94615000D02*
X194183000Y-89535000D01*
D34*
X184055000Y-99695000D02*
X184070000Y-99680000D01*
X184070000Y-99680000D02*
X184070000Y-96708000D01*
X184023000Y-102489000D02*
X184055000Y-102457000D01*
X184055000Y-102457000D02*
X184055000Y-99695000D01*
D11*
X206883000Y-54229000D02*
X206883000Y-56261000D01*
X206883000Y-56261000D02*
X208661000Y-58039000D01*
X208661000Y-58039000D02*
X208661000Y-74930000D01*
X208661000Y-74930000D02*
X210439000Y-76708000D01*
X210439000Y-76708000D02*
X210439000Y-89281000D01*
X210439000Y-89281000D02*
X209296000Y-90424000D01*
X204597000Y-90551000D02*
X204597000Y-89281000D01*
X204597000Y-89281000D02*
X204597000Y-88392000D01*
X204597000Y-88392000D02*
X198374000Y-82169000D01*
X198374000Y-82169000D02*
X196596000Y-82169000D01*
X194310000Y-82169000D02*
X196596000Y-82169000D01*
X191014000Y-78037000D02*
X191014000Y-78873000D01*
X191014000Y-78873000D02*
X194310000Y-82169000D01*
X204343000Y-54229000D02*
X204343000Y-53721000D01*
X204343000Y-53721000D02*
X203009500Y-52387500D01*
X203009500Y-52387500D02*
X193738500Y-52387500D01*
X193738500Y-52387500D02*
X192151000Y-53975000D01*
X192151000Y-53975000D02*
X192151000Y-54737000D01*
X192151000Y-54737000D02*
X190214000Y-56674000D01*
X190214000Y-56674000D02*
X190214000Y-69537000D01*
X192464000Y-71787000D02*
X193643000Y-71787000D01*
X193643000Y-71787000D02*
X194183000Y-71247000D01*
X194183000Y-71247000D02*
X194183000Y-61849000D01*
X194183000Y-61849000D02*
X201803000Y-54229000D01*
X192464000Y-70987000D02*
X192464000Y-61028000D01*
X192464000Y-61028000D02*
X199263000Y-54229000D01*
X183964000Y-72587000D02*
X182696000Y-72587000D01*
X196723000Y-55499000D02*
X196723000Y-54229000D01*
X192024000Y-60198000D02*
X196723000Y-55499000D01*
X179451000Y-60833000D02*
X180594000Y-60833000D01*
X178181000Y-62103000D02*
X179451000Y-60833000D01*
X178181000Y-67183000D02*
X178181000Y-64516000D01*
X179197000Y-69469000D02*
X178943000Y-69215000D01*
X180975000Y-69469000D02*
X179197000Y-69469000D01*
X181737000Y-70231000D02*
X180975000Y-69469000D01*
X181737000Y-71628000D02*
X181737000Y-70231000D01*
X182696000Y-72587000D02*
X181737000Y-71628000D01*
X194183000Y-54229000D02*
X195453000Y-52959000D01*
X195453000Y-52959000D02*
X202438000Y-52959000D01*
X202438000Y-52959000D02*
X203073000Y-53594000D01*
X203073000Y-53594000D02*
X203073000Y-55372000D01*
X203073000Y-55372000D02*
X205867000Y-58166000D01*
X205867000Y-58166000D02*
X207645000Y-59944000D01*
X207645000Y-59944000D02*
X207899000Y-60198000D01*
X207899000Y-60198000D02*
X207899000Y-75438000D01*
X207899000Y-75438000D02*
X209550000Y-77089000D01*
X209550000Y-77089000D02*
X209550000Y-88900000D01*
X209550000Y-88900000D02*
X209296000Y-89154000D01*
X203708000Y-89154000D02*
X197358000Y-82804000D01*
X197358000Y-82804000D02*
X195834000Y-82804000D01*
X190214000Y-79089000D02*
X190341000Y-79089000D01*
X190341000Y-79089000D02*
X194056000Y-82804000D01*
X194056000Y-82804000D02*
X195834000Y-82804000D01*
X190214000Y-78037000D02*
X190214000Y-79089000D01*
X189414000Y-69537000D02*
X189414000Y-62738000D01*
X189414000Y-62738000D02*
X189541000Y-62357000D01*
X189541000Y-62357000D02*
X189541000Y-61849000D01*
X189541000Y-61849000D02*
X189414000Y-61341000D01*
X189414000Y-61341000D02*
X189414000Y-54934000D01*
X189414000Y-54934000D02*
X190119000Y-54229000D01*
X187014000Y-69537000D02*
X187014000Y-54794000D01*
X187014000Y-54794000D02*
X187579000Y-54229000D01*
X183964000Y-76640000D02*
X180848000Y-79756000D01*
X170561000Y-67818000D02*
X170561000Y-65278000D01*
X170561000Y-76835000D02*
X170561000Y-67818000D01*
X173482000Y-79756000D02*
X170561000Y-76835000D01*
X180848000Y-79756000D02*
X179197000Y-79756000D01*
X176911000Y-79756000D02*
X173482000Y-79756000D01*
X186055000Y-55245000D02*
X185039000Y-54229000D01*
X186055000Y-61849000D02*
X186055000Y-55245000D01*
X177673000Y-63881000D02*
X179705000Y-61849000D01*
X171958000Y-63881000D02*
X177673000Y-63881000D01*
X170561000Y-65278000D02*
X171958000Y-63881000D01*
X179705000Y-61849000D02*
X181356000Y-61849000D01*
X183964000Y-76640000D02*
X183964000Y-76587000D01*
X167259000Y-54229000D02*
X169079002Y-52408998D01*
X169079002Y-52408998D02*
X187917998Y-52408998D01*
X187917998Y-52408998D02*
X188849000Y-53340000D01*
X188849000Y-53340000D02*
X188849000Y-54991000D01*
X188849000Y-54991000D02*
X187814000Y-56026000D01*
X187814000Y-56026000D02*
X187814000Y-61468000D01*
X187814000Y-61468000D02*
X187687000Y-61849000D01*
X187687000Y-61849000D02*
X187687000Y-62357000D01*
X187687000Y-62357000D02*
X187814000Y-62738000D01*
X187814000Y-62738000D02*
X187814000Y-69537000D01*
X152019000Y-81892140D02*
X152019000Y-81788000D01*
X152019000Y-81788000D02*
X149733000Y-79502000D01*
X149733000Y-79502000D02*
X149733000Y-54610000D01*
X149733000Y-54610000D02*
X151130000Y-53213000D01*
X151130000Y-53213000D02*
X158750000Y-53213000D01*
X158750000Y-53213000D02*
X160147000Y-54610000D01*
X160147000Y-54610000D02*
X160147000Y-56134000D01*
X160147000Y-56134000D02*
X161417000Y-57404000D01*
X161417000Y-57404000D02*
X165989000Y-57404000D01*
X165989000Y-57404000D02*
X167259000Y-56134000D01*
X167259000Y-56134000D02*
X167259000Y-54229000D01*
X185414000Y-69537000D02*
X185414000Y-69209000D01*
X185414000Y-69209000D02*
X183896000Y-67691000D01*
X183896000Y-67691000D02*
X183896000Y-61849000D01*
X183896000Y-61849000D02*
X183769000Y-61722000D01*
X183769000Y-61722000D02*
X183769000Y-53467000D01*
X183769000Y-53467000D02*
X183261000Y-52959000D01*
X183261000Y-52959000D02*
X171069000Y-52959000D01*
X171069000Y-52959000D02*
X169799000Y-54229000D01*
X191014000Y-69537000D02*
X191014000Y-57652000D01*
X191014000Y-57652000D02*
X192532000Y-56261000D01*
X183070500Y-78803500D02*
X183837000Y-78037000D01*
X183837000Y-78037000D02*
X185414000Y-78037000D01*
X169926000Y-67818000D02*
X169926000Y-60325000D01*
X176911000Y-80899000D02*
X173355000Y-80899000D01*
X180975000Y-80899000D02*
X179197000Y-80899000D01*
X183075000Y-78799000D02*
X183070500Y-78803500D01*
X183070500Y-78803500D02*
X180975000Y-80899000D01*
X173355000Y-80899000D02*
X169926000Y-77470000D01*
X169926000Y-77470000D02*
X169926000Y-67818000D01*
X182499000Y-57404000D02*
X182499000Y-54229000D01*
X181991000Y-57912000D02*
X182499000Y-57404000D01*
X180975000Y-57912000D02*
X181991000Y-57912000D01*
X172339000Y-57912000D02*
X178943000Y-57912000D01*
X169926000Y-60325000D02*
X172339000Y-57912000D01*
X193294000Y-83947000D02*
X193421000Y-84074000D01*
X193421000Y-84074000D02*
X194437000Y-84074000D01*
X194437000Y-84074000D02*
X201803000Y-91440000D01*
X201803000Y-91440000D02*
X201803000Y-102489000D01*
X188614000Y-78037000D02*
X188614000Y-79267000D01*
X188614000Y-79267000D02*
X193294000Y-83947000D01*
X193675000Y-83439000D02*
X195326000Y-83439000D01*
X195326000Y-83439000D02*
X204343000Y-92456000D01*
X204343000Y-92456000D02*
X204343000Y-102489000D01*
X189414000Y-78037000D02*
X189414000Y-79178000D01*
X189414000Y-79178000D02*
X193675000Y-83439000D01*
X192464000Y-75787000D02*
X193643000Y-75787000D01*
X193643000Y-75787000D02*
X193929000Y-76073000D01*
X193929000Y-76073000D02*
X193929000Y-80010000D01*
X193929000Y-80010000D02*
X194818000Y-80899000D01*
X194818000Y-80899000D02*
X199644000Y-80899000D01*
X199644000Y-80899000D02*
X206883000Y-88138000D01*
X206883000Y-88138000D02*
X206883000Y-102489000D01*
X192464000Y-76587000D02*
X192464000Y-79434000D01*
X192464000Y-79434000D02*
X194564000Y-81534000D01*
X194564000Y-81534000D02*
X199009000Y-81534000D01*
X199009000Y-81534000D02*
X205613000Y-88138000D01*
X205613000Y-88138000D02*
X205613000Y-103124000D01*
X205613000Y-103124000D02*
X206375000Y-103886000D01*
X206375000Y-103886000D02*
X208026000Y-103886000D01*
X208026000Y-103886000D02*
X209423000Y-102489000D01*
X211963000Y-102489000D02*
X211963000Y-100330000D01*
X211963000Y-100330000D02*
X208026000Y-96393000D01*
X208026000Y-96393000D02*
X208026000Y-84709000D01*
X208026000Y-84709000D02*
X208788000Y-83947000D01*
X208788000Y-83947000D02*
X208788000Y-77470000D01*
X208788000Y-77470000D02*
X206883000Y-75565000D01*
X206883000Y-75565000D02*
X206883000Y-65405000D01*
X206883000Y-65405000D02*
X203581000Y-62103000D01*
X203581000Y-62103000D02*
X196977000Y-62103000D01*
X188595000Y-62103000D02*
X188614000Y-62122000D01*
X188614000Y-62122000D02*
X188614000Y-69537000D01*
X185261000Y-86233000D02*
X185261000Y-83307940D01*
X185261000Y-83307940D02*
X184122060Y-82169000D01*
X186214000Y-78037000D02*
X186214000Y-80077060D01*
X186214000Y-80077060D02*
X184122060Y-82169000D01*
X188500000Y-86233000D02*
X188500000Y-82672940D01*
X188500000Y-82672940D02*
X189003940Y-82169000D01*
X189135000Y-82300060D02*
X189003940Y-82169000D01*
X187014000Y-78037000D02*
X187014000Y-80179060D01*
X187014000Y-80179060D02*
X189003940Y-82169000D01*
D34*
X177292000Y-96993000D02*
X172160640Y-96993000D01*
X172160640Y-96993000D02*
X172085000Y-97068640D01*
X168656000Y-97377000D02*
X167164000Y-95885000D01*
X167164000Y-95885000D02*
X164468000Y-95885000D01*
X172085000Y-97068640D02*
X168964360Y-97068640D01*
X168964360Y-97068640D02*
X168656000Y-97377000D01*
X156423360Y-102108000D02*
X158369000Y-102108000D01*
X158369000Y-102108000D02*
X162052000Y-98425000D01*
X162052000Y-98425000D02*
X167608000Y-98425000D01*
X167608000Y-98425000D02*
X168656000Y-97377000D01*
X156423360Y-102108000D02*
X158115000Y-102108000D01*
X164338000Y-95885000D02*
X164468000Y-95885000D01*
X155861000Y-84709000D02*
X155838140Y-84731860D01*
X155838140Y-84731860D02*
X152019000Y-84731860D01*
X167480000Y-74041000D02*
X163613000Y-74041000D01*
X163613000Y-74041000D02*
X163298000Y-74356000D01*
X152908000Y-75880000D02*
X161774000Y-75880000D01*
X161774000Y-75880000D02*
X163298000Y-74356000D01*
D11*
X167480000Y-72771000D02*
X163613000Y-72771000D01*
X163613000Y-72771000D02*
X163298000Y-72456000D01*
X152908000Y-70880000D02*
X161722000Y-70880000D01*
X161722000Y-70880000D02*
X163298000Y-72456000D01*
D34*
X151384000Y-101981000D02*
X151424640Y-102021640D01*
X151424640Y-102021640D02*
X151424640Y-102108000D01*
M02*
