G04 #@! TF.FileFunction,Copper,L2,Bot,Signal*
%FSLAX46Y46*%
G04 Gerber Fmt 4.6, Leading zero omitted, Abs format (unit mm)*
G04 Created by KiCad (PCBNEW 4.0.6) date Tuesday, 13 February 2018 20:17:47*
%MOMM*%
%LPD*%
G01*
G04 APERTURE LIST*
%ADD10C,0.100000*%
%ADD11O,1.727200X1.727200*%
%ADD12C,1.501140*%
%ADD13R,3.600000X2.100000*%
%ADD14O,3.600000X2.100000*%
%ADD15C,0.800000*%
%ADD16C,0.300000*%
%ADD17C,0.400000*%
%ADD18C,0.254000*%
G04 APERTURE END LIST*
D10*
D11*
X212090000Y-79629000D03*
X214630000Y-79629000D03*
X214630000Y-77089000D03*
X212090000Y-77089000D03*
X214630000Y-74549000D03*
X199263000Y-102489000D03*
X194183000Y-102489000D03*
X191643000Y-102489000D03*
X189103000Y-102489000D03*
X186563000Y-102489000D03*
X184023000Y-102489000D03*
X181483000Y-102489000D03*
X178943000Y-102489000D03*
X211963000Y-54229000D03*
X209423000Y-54229000D03*
X206883000Y-54229000D03*
X204343000Y-54229000D03*
X201803000Y-54229000D03*
X199263000Y-54229000D03*
X196723000Y-54229000D03*
X194183000Y-54229000D03*
X174879000Y-54229000D03*
X190119000Y-54229000D03*
X187579000Y-54229000D03*
X185039000Y-54229000D03*
X167259000Y-54229000D03*
X169799000Y-54229000D03*
X172339000Y-54229000D03*
X177419000Y-54229000D03*
X179959000Y-54229000D03*
X182499000Y-54229000D03*
X176403000Y-102489000D03*
X201803000Y-102489000D03*
X204343000Y-102489000D03*
X206883000Y-102489000D03*
X209423000Y-102489000D03*
X211963000Y-102489000D03*
X212090000Y-74549000D03*
D12*
X184122060Y-82169000D03*
X189003940Y-82169000D03*
D13*
X152908000Y-55880000D03*
D14*
X152908000Y-60880000D03*
X152908000Y-65880000D03*
X152908000Y-70880000D03*
X152908000Y-75880000D03*
D15*
X184912000Y-57277000D03*
X177800000Y-57023000D03*
X185420000Y-63119000D03*
X198374000Y-63119000D03*
X207518000Y-77724000D03*
X181864000Y-94234000D03*
X181864000Y-92075000D03*
X179197000Y-82042000D03*
X176911000Y-82042000D03*
X188087000Y-95758000D03*
X191008000Y-91726000D03*
X175514000Y-60756000D03*
X181388000Y-63754000D03*
X196088000Y-67850000D03*
X199771000Y-70281000D03*
X203708000Y-72668000D03*
X192500000Y-86233000D03*
X196088000Y-74962000D03*
X180340000Y-75406000D03*
X181261000Y-86233000D03*
X175895000Y-75406000D03*
X167480000Y-75311000D03*
X160298000Y-73406000D03*
X172212000Y-85775000D03*
X168656000Y-86138000D03*
X177292000Y-89443000D03*
X168656000Y-93377000D03*
X157734000Y-93345000D03*
X157734000Y-89789000D03*
X153035000Y-89789000D03*
X153035000Y-93345000D03*
X153035000Y-96774000D03*
X157607000Y-96774000D03*
X155321000Y-96774000D03*
X155321000Y-89789000D03*
X155318000Y-93345000D03*
X179324000Y-63373000D03*
X179324000Y-65913000D03*
X206629000Y-61849000D03*
X199517000Y-59436000D03*
X179959000Y-68453000D03*
X211709000Y-61849000D03*
X200660000Y-92075000D03*
X209296000Y-92075000D03*
X200660000Y-93980000D03*
X209296000Y-93980000D03*
X214630000Y-83058000D03*
X206629000Y-83058000D03*
X200533000Y-56896000D03*
X182880000Y-58420000D03*
X200533000Y-58420000D03*
X206629000Y-60452000D03*
X210566000Y-60452000D03*
X179197000Y-77470000D03*
X176911000Y-77470000D03*
X179197000Y-78613000D03*
X176911000Y-78613000D03*
X194183000Y-72517000D03*
X194183000Y-89535000D03*
X209296000Y-90424000D03*
X204597000Y-90551000D03*
X192024000Y-60198000D03*
X180594000Y-60833000D03*
X178181000Y-62103000D03*
X178181000Y-64516000D03*
X178181000Y-67183000D03*
X178943000Y-69215000D03*
X209296000Y-89154000D03*
X203708000Y-89154000D03*
X181356000Y-61849000D03*
X179197000Y-79756000D03*
X176911000Y-79756000D03*
X186055000Y-61849000D03*
X192532000Y-56261000D03*
X176911000Y-80899000D03*
X179197000Y-80899000D03*
X180975000Y-57912000D03*
X178943000Y-57912000D03*
X196977000Y-62103000D03*
X188595000Y-62103000D03*
X151384000Y-101981000D03*
D16*
X184658000Y-57023000D02*
X184912000Y-57277000D01*
X177800000Y-57023000D02*
X184658000Y-57023000D01*
X212090000Y-79629000D02*
X209423000Y-79629000D01*
X198374000Y-63119000D02*
X185420000Y-63119000D01*
X209423000Y-79629000D02*
X207518000Y-77724000D01*
X181864000Y-94234000D02*
X181864000Y-92075000D01*
X179197000Y-82042000D02*
X176911000Y-82042000D01*
D17*
X191008000Y-91726000D02*
X191008000Y-91694000D01*
X175514000Y-60756000D02*
X175514000Y-60833000D01*
X181388000Y-63754000D02*
X181356000Y-63754000D01*
X196088000Y-67850000D02*
X196088000Y-67818000D01*
X199771000Y-70281000D02*
X199771000Y-70358000D01*
X203708000Y-72668000D02*
X203708000Y-72644000D01*
X192500000Y-86233000D02*
X192532000Y-86233000D01*
X196088000Y-74962000D02*
X196088000Y-74930000D01*
X180340000Y-75406000D02*
X180340000Y-75438000D01*
X181261000Y-86233000D02*
X181229000Y-86233000D01*
X175895000Y-75406000D02*
X175895000Y-75438000D01*
X167480000Y-75311000D02*
X167513000Y-75311000D01*
X160298000Y-73406000D02*
X160274000Y-73406000D01*
X172212000Y-85775000D02*
X172212000Y-85725000D01*
X168656000Y-86138000D02*
X168656000Y-86106000D01*
X177292000Y-89443000D02*
X177292000Y-89408000D01*
X168656000Y-93377000D02*
X168656000Y-93345000D01*
X155318000Y-93345000D02*
X157734000Y-93345000D01*
X155321000Y-89789000D02*
X157734000Y-89789000D01*
X155321000Y-89789000D02*
X153035000Y-89789000D01*
X155318000Y-93345000D02*
X153035000Y-93345000D01*
X155321000Y-96774000D02*
X153035000Y-96774000D01*
X155321000Y-96774000D02*
X157607000Y-96774000D01*
X155318000Y-93345000D02*
X155318000Y-96771000D01*
X155318000Y-96771000D02*
X155321000Y-96774000D01*
X155318000Y-93345000D02*
X155318000Y-89792000D01*
X155318000Y-89792000D02*
X155321000Y-89789000D01*
X155318000Y-93345000D02*
X155321000Y-93345000D01*
D16*
X179324000Y-63373000D02*
X179324000Y-60960000D01*
X179324000Y-67818000D02*
X179324000Y-65913000D01*
X211709000Y-61849000D02*
X206629000Y-61849000D01*
X199517000Y-59436000D02*
X199390000Y-59309000D01*
X199390000Y-59309000D02*
X180975000Y-59309000D01*
X180975000Y-59309000D02*
X179324000Y-60960000D01*
X179324000Y-67818000D02*
X179959000Y-68453000D01*
X200660000Y-92075000D02*
X209296000Y-92075000D01*
D17*
X200660000Y-93980000D02*
X209296000Y-93980000D01*
X214630000Y-83058000D02*
X206629000Y-83058000D01*
D16*
X172339000Y-54229000D02*
X173863000Y-52705000D01*
X200533000Y-53213000D02*
X200533000Y-56896000D01*
X200025000Y-52705000D02*
X200533000Y-53213000D01*
X173863000Y-52705000D02*
X200025000Y-52705000D01*
X200533000Y-58420000D02*
X182880000Y-58420000D01*
X210566000Y-60452000D02*
X206629000Y-60452000D01*
X179197000Y-77470000D02*
X176911000Y-77470000D01*
X179197000Y-78613000D02*
X176911000Y-78613000D01*
X194183000Y-89535000D02*
X194183000Y-72517000D01*
X209296000Y-90424000D02*
X209169000Y-90551000D01*
X209169000Y-90551000D02*
X204597000Y-90551000D01*
X181229000Y-60198000D02*
X192024000Y-60198000D01*
X180594000Y-60833000D02*
X181229000Y-60198000D01*
X178181000Y-64516000D02*
X178181000Y-62103000D01*
X178181000Y-68453000D02*
X178181000Y-67183000D01*
X178943000Y-69215000D02*
X178181000Y-68453000D01*
X209296000Y-89154000D02*
X203708000Y-89154000D01*
X181356000Y-61849000D02*
X186055000Y-61849000D01*
X179197000Y-79756000D02*
X176911000Y-79756000D01*
X192532000Y-56261000D02*
X190627000Y-56261000D01*
X190627000Y-56261000D02*
X179451000Y-56261000D01*
X179451000Y-56261000D02*
X177419000Y-54229000D01*
X179197000Y-80899000D02*
X176911000Y-80899000D01*
X178943000Y-57912000D02*
X180975000Y-57912000D01*
X196977000Y-62103000D02*
X188595000Y-62103000D01*
D17*
X152908000Y-60880000D02*
X150702000Y-60880000D01*
X150702000Y-60880000D02*
X149733000Y-61849000D01*
X149733000Y-61849000D02*
X149733000Y-100330000D01*
X149733000Y-100330000D02*
X151384000Y-101981000D01*
D18*
G36*
X161809364Y-52961321D02*
X161468389Y-53782481D01*
X161467613Y-54671619D01*
X161807155Y-55493372D01*
X162435321Y-56122636D01*
X163256481Y-56463611D01*
X164145619Y-56464387D01*
X164967372Y-56124845D01*
X165596636Y-55496679D01*
X165869645Y-54839200D01*
X166169971Y-55288670D01*
X166656152Y-55613526D01*
X167229641Y-55727600D01*
X167288359Y-55727600D01*
X167861848Y-55613526D01*
X168348029Y-55288670D01*
X168529000Y-55017828D01*
X168709971Y-55288670D01*
X169196152Y-55613526D01*
X169769641Y-55727600D01*
X169828359Y-55727600D01*
X170401848Y-55613526D01*
X170888029Y-55288670D01*
X171069000Y-55017828D01*
X171249971Y-55288670D01*
X171736152Y-55613526D01*
X172309641Y-55727600D01*
X172368359Y-55727600D01*
X172941848Y-55613526D01*
X173428029Y-55288670D01*
X173608992Y-55017839D01*
X173990510Y-55435821D01*
X174519973Y-55683968D01*
X174752000Y-55563469D01*
X174752000Y-54356000D01*
X174732000Y-54356000D01*
X174732000Y-54102000D01*
X174752000Y-54102000D01*
X174752000Y-54082000D01*
X175006000Y-54082000D01*
X175006000Y-54102000D01*
X175026000Y-54102000D01*
X175026000Y-54356000D01*
X175006000Y-54356000D01*
X175006000Y-55563469D01*
X175238027Y-55683968D01*
X175767490Y-55435821D01*
X176149008Y-55017839D01*
X176329971Y-55288670D01*
X176816152Y-55613526D01*
X177389641Y-55727600D01*
X177448359Y-55727600D01*
X177747866Y-55668024D01*
X178111511Y-56031669D01*
X178006777Y-55988180D01*
X177595029Y-55987821D01*
X177214485Y-56145058D01*
X176923081Y-56435954D01*
X176765180Y-56816223D01*
X176764821Y-57227971D01*
X176922058Y-57608515D01*
X177212954Y-57899919D01*
X177593223Y-58057820D01*
X177907872Y-58058094D01*
X177907821Y-58116971D01*
X178065058Y-58497515D01*
X178355954Y-58788919D01*
X178736223Y-58946820D01*
X179147971Y-58947179D01*
X179528515Y-58789942D01*
X179621619Y-58697000D01*
X180296195Y-58697000D01*
X180386440Y-58787402D01*
X178768921Y-60404921D01*
X178598755Y-60659593D01*
X178574105Y-60783515D01*
X178539000Y-60960000D01*
X178539000Y-61130973D01*
X178387777Y-61068180D01*
X177976029Y-61067821D01*
X177595485Y-61225058D01*
X177304081Y-61515954D01*
X177146180Y-61896223D01*
X177145821Y-62307971D01*
X177303058Y-62688515D01*
X177396000Y-62781619D01*
X177396000Y-63837195D01*
X177304081Y-63928954D01*
X177146180Y-64309223D01*
X177145821Y-64720971D01*
X177303058Y-65101515D01*
X177593954Y-65392919D01*
X177974223Y-65550820D01*
X178353571Y-65551151D01*
X178289180Y-65706223D01*
X178288821Y-66117971D01*
X178301272Y-66148105D01*
X177976029Y-66147821D01*
X177595485Y-66305058D01*
X177304081Y-66595954D01*
X177146180Y-66976223D01*
X177145821Y-67387971D01*
X177303058Y-67768515D01*
X177396000Y-67861619D01*
X177396000Y-68453000D01*
X177455755Y-68753407D01*
X177625921Y-69008079D01*
X177907934Y-69290092D01*
X177907821Y-69419971D01*
X178065058Y-69800515D01*
X178355954Y-70091919D01*
X178736223Y-70249820D01*
X179147971Y-70250179D01*
X179528515Y-70092942D01*
X179819919Y-69802046D01*
X179950325Y-69487993D01*
X180163971Y-69488179D01*
X180544515Y-69330942D01*
X180835919Y-69040046D01*
X180993820Y-68659777D01*
X180994179Y-68248029D01*
X180836942Y-67867485D01*
X180546046Y-67576081D01*
X180165777Y-67418180D01*
X180109000Y-67418130D01*
X180109000Y-66591805D01*
X180200919Y-66500046D01*
X180358820Y-66119777D01*
X180359179Y-65708029D01*
X180201942Y-65327485D01*
X179911046Y-65036081D01*
X179530777Y-64878180D01*
X179151429Y-64877849D01*
X179215820Y-64722777D01*
X179216095Y-64407906D01*
X179528971Y-64408179D01*
X179909515Y-64250942D01*
X180200919Y-63960046D01*
X180358820Y-63579777D01*
X180359179Y-63168029D01*
X180201942Y-62787485D01*
X180109000Y-62694381D01*
X180109000Y-61752292D01*
X180321007Y-61840325D01*
X180320821Y-62053971D01*
X180478058Y-62434515D01*
X180768954Y-62725919D01*
X181149223Y-62883820D01*
X181560971Y-62884179D01*
X181941515Y-62726942D01*
X182034619Y-62634000D01*
X184500708Y-62634000D01*
X184385180Y-62912223D01*
X184384821Y-63323971D01*
X184542058Y-63704515D01*
X184832954Y-63995919D01*
X185213223Y-64153820D01*
X185624971Y-64154179D01*
X186005515Y-63996942D01*
X186098619Y-63904000D01*
X197695195Y-63904000D01*
X197786954Y-63995919D01*
X198167223Y-64153820D01*
X198578971Y-64154179D01*
X198959515Y-63996942D01*
X199250919Y-63706046D01*
X199408820Y-63325777D01*
X199409179Y-62914029D01*
X199251942Y-62533485D01*
X198961046Y-62242081D01*
X198580777Y-62084180D01*
X198169029Y-62083821D01*
X198011960Y-62148720D01*
X198012179Y-61898029D01*
X197854942Y-61517485D01*
X197739000Y-61401341D01*
X197739000Y-60656971D01*
X205593821Y-60656971D01*
X205751058Y-61037515D01*
X205863788Y-61150442D01*
X205752081Y-61261954D01*
X205594180Y-61642223D01*
X205593821Y-62053971D01*
X205751058Y-62434515D01*
X206041954Y-62725919D01*
X206422223Y-62883820D01*
X206833971Y-62884179D01*
X207214515Y-62726942D01*
X207307619Y-62634000D01*
X211030195Y-62634000D01*
X211121954Y-62725919D01*
X211502223Y-62883820D01*
X211913971Y-62884179D01*
X212294515Y-62726942D01*
X212585919Y-62436046D01*
X212743820Y-62055777D01*
X212744179Y-61644029D01*
X212586942Y-61263485D01*
X212296046Y-60972081D01*
X211915777Y-60814180D01*
X211536429Y-60813849D01*
X211600820Y-60658777D01*
X211601179Y-60247029D01*
X211443942Y-59866485D01*
X211153046Y-59575081D01*
X210772777Y-59417180D01*
X210361029Y-59416821D01*
X209980485Y-59574058D01*
X209887381Y-59667000D01*
X207307805Y-59667000D01*
X207216046Y-59575081D01*
X206835777Y-59417180D01*
X206424029Y-59416821D01*
X206043485Y-59574058D01*
X205752081Y-59864954D01*
X205594180Y-60245223D01*
X205593821Y-60656971D01*
X197739000Y-60656971D01*
X197739000Y-60094000D01*
X198711417Y-60094000D01*
X198929954Y-60312919D01*
X199310223Y-60470820D01*
X199721971Y-60471179D01*
X200102515Y-60313942D01*
X200393919Y-60023046D01*
X200551820Y-59642777D01*
X200551984Y-59455017D01*
X200737971Y-59455179D01*
X201118515Y-59297942D01*
X201409919Y-59007046D01*
X201567820Y-58626777D01*
X201568179Y-58215029D01*
X201410942Y-57834485D01*
X201234712Y-57657947D01*
X201409919Y-57483046D01*
X201567820Y-57102777D01*
X201568179Y-56691029D01*
X201410942Y-56310485D01*
X201318000Y-56217381D01*
X201318000Y-55636967D01*
X201773641Y-55727600D01*
X201832359Y-55727600D01*
X202405848Y-55613526D01*
X202892029Y-55288670D01*
X203073000Y-55017828D01*
X203253971Y-55288670D01*
X203740152Y-55613526D01*
X204313641Y-55727600D01*
X204372359Y-55727600D01*
X204945848Y-55613526D01*
X205432029Y-55288670D01*
X205613000Y-55017828D01*
X205793971Y-55288670D01*
X206280152Y-55613526D01*
X206853641Y-55727600D01*
X206912359Y-55727600D01*
X207485848Y-55613526D01*
X207972029Y-55288670D01*
X208153000Y-55017828D01*
X208333971Y-55288670D01*
X208820152Y-55613526D01*
X209393641Y-55727600D01*
X209452359Y-55727600D01*
X210025848Y-55613526D01*
X210512029Y-55288670D01*
X210693000Y-55017828D01*
X210873971Y-55288670D01*
X211360152Y-55613526D01*
X211933641Y-55727600D01*
X211992359Y-55727600D01*
X212565848Y-55613526D01*
X213052029Y-55288670D01*
X213376885Y-54802489D01*
X213490959Y-54229000D01*
X213376885Y-53655511D01*
X213052029Y-53169330D01*
X212565848Y-52844474D01*
X211992359Y-52730400D01*
X211933641Y-52730400D01*
X211360152Y-52844474D01*
X210873971Y-53169330D01*
X210693000Y-53440172D01*
X210512029Y-53169330D01*
X210025848Y-52844474D01*
X209452359Y-52730400D01*
X209393641Y-52730400D01*
X208820152Y-52844474D01*
X208333971Y-53169330D01*
X208153000Y-53440172D01*
X207972029Y-53169330D01*
X207485848Y-52844474D01*
X206912359Y-52730400D01*
X206853641Y-52730400D01*
X206280152Y-52844474D01*
X205793971Y-53169330D01*
X205613000Y-53440172D01*
X205432029Y-53169330D01*
X204945848Y-52844474D01*
X204372359Y-52730400D01*
X204313641Y-52730400D01*
X203740152Y-52844474D01*
X203253971Y-53169330D01*
X203073000Y-53440172D01*
X202892029Y-53169330D01*
X202405848Y-52844474D01*
X201832359Y-52730400D01*
X201773641Y-52730400D01*
X201211253Y-52842266D01*
X201088079Y-52657921D01*
X201088076Y-52657919D01*
X200829158Y-52399000D01*
X212684908Y-52399000D01*
X213793000Y-53507091D01*
X213793000Y-64389000D01*
X213847046Y-64660705D01*
X214000954Y-64891046D01*
X216333000Y-67223091D01*
X216333000Y-68138668D01*
X215770679Y-67575364D01*
X214949519Y-67234389D01*
X214060381Y-67233613D01*
X213238628Y-67573155D01*
X212609364Y-68201321D01*
X212268389Y-69022481D01*
X212267613Y-69911619D01*
X212607155Y-70733372D01*
X213235321Y-71362636D01*
X214056481Y-71703611D01*
X214945619Y-71704387D01*
X215767372Y-71364845D01*
X216333000Y-70800204D01*
X216333000Y-96078668D01*
X215770679Y-95515364D01*
X214949519Y-95174389D01*
X214060381Y-95173613D01*
X213238628Y-95513155D01*
X212609364Y-96141321D01*
X212268389Y-96962481D01*
X212267613Y-97851619D01*
X212607155Y-98673372D01*
X213235321Y-99302636D01*
X214056481Y-99643611D01*
X214945619Y-99644387D01*
X215767372Y-99304845D01*
X216333000Y-98740204D01*
X216333000Y-100924909D01*
X214000954Y-103256954D01*
X213847046Y-103487295D01*
X213793000Y-103759000D01*
X213793000Y-104319000D01*
X163763332Y-104319000D01*
X164326636Y-103756679D01*
X164667611Y-102935519D01*
X164668000Y-102489000D01*
X174875041Y-102489000D01*
X174989115Y-103062489D01*
X175313971Y-103548670D01*
X175800152Y-103873526D01*
X176373641Y-103987600D01*
X176432359Y-103987600D01*
X177005848Y-103873526D01*
X177492029Y-103548670D01*
X177673000Y-103277828D01*
X177853971Y-103548670D01*
X178340152Y-103873526D01*
X178913641Y-103987600D01*
X178972359Y-103987600D01*
X179545848Y-103873526D01*
X180032029Y-103548670D01*
X180213000Y-103277828D01*
X180393971Y-103548670D01*
X180880152Y-103873526D01*
X181453641Y-103987600D01*
X181512359Y-103987600D01*
X182085848Y-103873526D01*
X182572029Y-103548670D01*
X182753000Y-103277828D01*
X182933971Y-103548670D01*
X183420152Y-103873526D01*
X183993641Y-103987600D01*
X184052359Y-103987600D01*
X184625848Y-103873526D01*
X185112029Y-103548670D01*
X185293000Y-103277828D01*
X185473971Y-103548670D01*
X185960152Y-103873526D01*
X186533641Y-103987600D01*
X186592359Y-103987600D01*
X187165848Y-103873526D01*
X187652029Y-103548670D01*
X187832992Y-103277839D01*
X188214510Y-103695821D01*
X188743973Y-103943968D01*
X188976000Y-103823469D01*
X188976000Y-102616000D01*
X189230000Y-102616000D01*
X189230000Y-103823469D01*
X189462027Y-103943968D01*
X189991490Y-103695821D01*
X190373000Y-103277848D01*
X190754510Y-103695821D01*
X191283973Y-103943968D01*
X191516000Y-103823469D01*
X191516000Y-102616000D01*
X189230000Y-102616000D01*
X188976000Y-102616000D01*
X188956000Y-102616000D01*
X188956000Y-102362000D01*
X188976000Y-102362000D01*
X188976000Y-101154531D01*
X189230000Y-101154531D01*
X189230000Y-102362000D01*
X191516000Y-102362000D01*
X191516000Y-101154531D01*
X191770000Y-101154531D01*
X191770000Y-102362000D01*
X191790000Y-102362000D01*
X191790000Y-102616000D01*
X191770000Y-102616000D01*
X191770000Y-103823469D01*
X192002027Y-103943968D01*
X192531490Y-103695821D01*
X192913008Y-103277839D01*
X193093971Y-103548670D01*
X193580152Y-103873526D01*
X194153641Y-103987600D01*
X194212359Y-103987600D01*
X194785848Y-103873526D01*
X195272029Y-103548670D01*
X195596885Y-103062489D01*
X195710959Y-102489000D01*
X197735041Y-102489000D01*
X197849115Y-103062489D01*
X198173971Y-103548670D01*
X198660152Y-103873526D01*
X199233641Y-103987600D01*
X199292359Y-103987600D01*
X199865848Y-103873526D01*
X200352029Y-103548670D01*
X200533000Y-103277828D01*
X200713971Y-103548670D01*
X201200152Y-103873526D01*
X201773641Y-103987600D01*
X201832359Y-103987600D01*
X202405848Y-103873526D01*
X202892029Y-103548670D01*
X203073000Y-103277828D01*
X203253971Y-103548670D01*
X203740152Y-103873526D01*
X204313641Y-103987600D01*
X204372359Y-103987600D01*
X204945848Y-103873526D01*
X205432029Y-103548670D01*
X205613000Y-103277828D01*
X205793971Y-103548670D01*
X206280152Y-103873526D01*
X206853641Y-103987600D01*
X206912359Y-103987600D01*
X207485848Y-103873526D01*
X207972029Y-103548670D01*
X208153000Y-103277828D01*
X208333971Y-103548670D01*
X208820152Y-103873526D01*
X209393641Y-103987600D01*
X209452359Y-103987600D01*
X210025848Y-103873526D01*
X210512029Y-103548670D01*
X210693000Y-103277828D01*
X210873971Y-103548670D01*
X211360152Y-103873526D01*
X211933641Y-103987600D01*
X211992359Y-103987600D01*
X212565848Y-103873526D01*
X213052029Y-103548670D01*
X213376885Y-103062489D01*
X213490959Y-102489000D01*
X213376885Y-101915511D01*
X213052029Y-101429330D01*
X212565848Y-101104474D01*
X211992359Y-100990400D01*
X211933641Y-100990400D01*
X211360152Y-101104474D01*
X210873971Y-101429330D01*
X210693000Y-101700172D01*
X210512029Y-101429330D01*
X210025848Y-101104474D01*
X209452359Y-100990400D01*
X209393641Y-100990400D01*
X208820152Y-101104474D01*
X208333971Y-101429330D01*
X208153000Y-101700172D01*
X207972029Y-101429330D01*
X207485848Y-101104474D01*
X206912359Y-100990400D01*
X206853641Y-100990400D01*
X206280152Y-101104474D01*
X205793971Y-101429330D01*
X205613000Y-101700172D01*
X205432029Y-101429330D01*
X204945848Y-101104474D01*
X204372359Y-100990400D01*
X204313641Y-100990400D01*
X203740152Y-101104474D01*
X203253971Y-101429330D01*
X203073000Y-101700172D01*
X202892029Y-101429330D01*
X202405848Y-101104474D01*
X201832359Y-100990400D01*
X201773641Y-100990400D01*
X201200152Y-101104474D01*
X200713971Y-101429330D01*
X200533000Y-101700172D01*
X200352029Y-101429330D01*
X199865848Y-101104474D01*
X199292359Y-100990400D01*
X199233641Y-100990400D01*
X198660152Y-101104474D01*
X198173971Y-101429330D01*
X197849115Y-101915511D01*
X197735041Y-102489000D01*
X195710959Y-102489000D01*
X195596885Y-101915511D01*
X195272029Y-101429330D01*
X194785848Y-101104474D01*
X194212359Y-100990400D01*
X194153641Y-100990400D01*
X193580152Y-101104474D01*
X193093971Y-101429330D01*
X192913008Y-101700161D01*
X192531490Y-101282179D01*
X192002027Y-101034032D01*
X191770000Y-101154531D01*
X191516000Y-101154531D01*
X191283973Y-101034032D01*
X190754510Y-101282179D01*
X190373000Y-101700152D01*
X189991490Y-101282179D01*
X189462027Y-101034032D01*
X189230000Y-101154531D01*
X188976000Y-101154531D01*
X188743973Y-101034032D01*
X188214510Y-101282179D01*
X187832992Y-101700161D01*
X187652029Y-101429330D01*
X187165848Y-101104474D01*
X186592359Y-100990400D01*
X186533641Y-100990400D01*
X185960152Y-101104474D01*
X185473971Y-101429330D01*
X185293000Y-101700172D01*
X185112029Y-101429330D01*
X184625848Y-101104474D01*
X184052359Y-100990400D01*
X183993641Y-100990400D01*
X183420152Y-101104474D01*
X182933971Y-101429330D01*
X182753000Y-101700172D01*
X182572029Y-101429330D01*
X182085848Y-101104474D01*
X181512359Y-100990400D01*
X181453641Y-100990400D01*
X180880152Y-101104474D01*
X180393971Y-101429330D01*
X180213000Y-101700172D01*
X180032029Y-101429330D01*
X179545848Y-101104474D01*
X178972359Y-100990400D01*
X178913641Y-100990400D01*
X178340152Y-101104474D01*
X177853971Y-101429330D01*
X177673000Y-101700172D01*
X177492029Y-101429330D01*
X177005848Y-101104474D01*
X176432359Y-100990400D01*
X176373641Y-100990400D01*
X175800152Y-101104474D01*
X175313971Y-101429330D01*
X174989115Y-101915511D01*
X174875041Y-102489000D01*
X164668000Y-102489000D01*
X164668387Y-102046381D01*
X164328845Y-101224628D01*
X163700679Y-100595364D01*
X162879519Y-100254389D01*
X161990381Y-100253613D01*
X161168628Y-100593155D01*
X160539364Y-101221321D01*
X160198389Y-102042481D01*
X160197613Y-102931619D01*
X160537155Y-103753372D01*
X161101796Y-104319000D01*
X149173000Y-104319000D01*
X149173000Y-100950868D01*
X150348873Y-102126741D01*
X150348821Y-102185971D01*
X150506058Y-102566515D01*
X150796954Y-102857919D01*
X151177223Y-103015820D01*
X151588971Y-103016179D01*
X151969515Y-102858942D01*
X152260919Y-102568046D01*
X152418820Y-102187777D01*
X152419179Y-101776029D01*
X152261942Y-101395485D01*
X151971046Y-101104081D01*
X151590777Y-100946180D01*
X151529995Y-100946127D01*
X150568000Y-99984132D01*
X150568000Y-92279971D01*
X180828821Y-92279971D01*
X180986058Y-92660515D01*
X181079000Y-92753619D01*
X181079000Y-93555195D01*
X180987081Y-93646954D01*
X180829180Y-94027223D01*
X180828821Y-94438971D01*
X180986058Y-94819515D01*
X181276954Y-95110919D01*
X181657223Y-95268820D01*
X182068971Y-95269179D01*
X182449515Y-95111942D01*
X182740919Y-94821046D01*
X182898820Y-94440777D01*
X182899179Y-94029029D01*
X182741942Y-93648485D01*
X182649000Y-93555381D01*
X182649000Y-92753805D01*
X182740919Y-92662046D01*
X182898820Y-92281777D01*
X182898821Y-92279971D01*
X199624821Y-92279971D01*
X199782058Y-92660515D01*
X200072954Y-92951919D01*
X200254952Y-93027491D01*
X200074485Y-93102058D01*
X199783081Y-93392954D01*
X199625180Y-93773223D01*
X199624821Y-94184971D01*
X199782058Y-94565515D01*
X200072954Y-94856919D01*
X200453223Y-95014820D01*
X200864971Y-95015179D01*
X201245515Y-94857942D01*
X201288532Y-94815000D01*
X208667108Y-94815000D01*
X208708954Y-94856919D01*
X209089223Y-95014820D01*
X209500971Y-95015179D01*
X209881515Y-94857942D01*
X210172919Y-94567046D01*
X210330820Y-94186777D01*
X210331179Y-93775029D01*
X210173942Y-93394485D01*
X209883046Y-93103081D01*
X209701048Y-93027509D01*
X209881515Y-92952942D01*
X210172919Y-92662046D01*
X210330820Y-92281777D01*
X210331179Y-91870029D01*
X210173942Y-91489485D01*
X209934212Y-91249337D01*
X210172919Y-91011046D01*
X210330820Y-90630777D01*
X210331179Y-90219029D01*
X210173942Y-89838485D01*
X210124712Y-89789169D01*
X210172919Y-89741046D01*
X210330820Y-89360777D01*
X210331179Y-88949029D01*
X210173942Y-88568485D01*
X209883046Y-88277081D01*
X209502777Y-88119180D01*
X209091029Y-88118821D01*
X208710485Y-88276058D01*
X208617381Y-88369000D01*
X204386805Y-88369000D01*
X204295046Y-88277081D01*
X203914777Y-88119180D01*
X203503029Y-88118821D01*
X203122485Y-88276058D01*
X202831081Y-88566954D01*
X202673180Y-88947223D01*
X202672821Y-89358971D01*
X202830058Y-89739515D01*
X203120954Y-90030919D01*
X203501223Y-90188820D01*
X203626663Y-90188929D01*
X203562180Y-90344223D01*
X203561821Y-90755971D01*
X203719058Y-91136515D01*
X203872275Y-91290000D01*
X201338805Y-91290000D01*
X201247046Y-91198081D01*
X200866777Y-91040180D01*
X200455029Y-91039821D01*
X200074485Y-91197058D01*
X199783081Y-91487954D01*
X199625180Y-91868223D01*
X199624821Y-92279971D01*
X182898821Y-92279971D01*
X182899179Y-91870029D01*
X182741942Y-91489485D01*
X182451046Y-91198081D01*
X182070777Y-91040180D01*
X181659029Y-91039821D01*
X181278485Y-91197058D01*
X180987081Y-91487954D01*
X180829180Y-91868223D01*
X180828821Y-92279971D01*
X150568000Y-92279971D01*
X150568000Y-77674971D01*
X175875821Y-77674971D01*
X176027446Y-78041933D01*
X175876180Y-78406223D01*
X175875821Y-78817971D01*
X176027446Y-79184933D01*
X175876180Y-79549223D01*
X175875821Y-79960971D01*
X176027446Y-80327933D01*
X175876180Y-80692223D01*
X175875821Y-81103971D01*
X176027446Y-81470933D01*
X175876180Y-81835223D01*
X175875821Y-82246971D01*
X176033058Y-82627515D01*
X176323954Y-82918919D01*
X176704223Y-83076820D01*
X177115971Y-83077179D01*
X177496515Y-82919942D01*
X177589619Y-82827000D01*
X178518195Y-82827000D01*
X178609954Y-82918919D01*
X178990223Y-83076820D01*
X179401971Y-83077179D01*
X179782515Y-82919942D01*
X180073919Y-82629046D01*
X180151006Y-82443398D01*
X182736250Y-82443398D01*
X182946746Y-82952837D01*
X183336173Y-83342944D01*
X183845244Y-83554329D01*
X184396458Y-83554810D01*
X184905897Y-83344314D01*
X185296004Y-82954887D01*
X185507389Y-82445816D01*
X185507391Y-82443398D01*
X187618130Y-82443398D01*
X187828626Y-82952837D01*
X188218053Y-83342944D01*
X188727124Y-83554329D01*
X189278338Y-83554810D01*
X189787777Y-83344314D01*
X190177884Y-82954887D01*
X190389269Y-82445816D01*
X190389750Y-81894602D01*
X190179254Y-81385163D01*
X189789827Y-80995056D01*
X189280756Y-80783671D01*
X188729542Y-80783190D01*
X188220103Y-80993686D01*
X187829996Y-81383113D01*
X187618611Y-81892184D01*
X187618130Y-82443398D01*
X185507391Y-82443398D01*
X185507870Y-81894602D01*
X185297374Y-81385163D01*
X184907947Y-80995056D01*
X184398876Y-80783671D01*
X183847662Y-80783190D01*
X183338223Y-80993686D01*
X182948116Y-81383113D01*
X182736731Y-81892184D01*
X182736250Y-82443398D01*
X180151006Y-82443398D01*
X180231820Y-82248777D01*
X180232179Y-81837029D01*
X180080554Y-81470067D01*
X180231820Y-81105777D01*
X180232179Y-80694029D01*
X180080554Y-80327067D01*
X180231820Y-79962777D01*
X180232179Y-79551029D01*
X180080554Y-79184067D01*
X180231820Y-78819777D01*
X180232179Y-78408029D01*
X180080554Y-78041067D01*
X180231820Y-77676777D01*
X180232179Y-77265029D01*
X180074942Y-76884485D01*
X179784046Y-76593081D01*
X179403777Y-76435180D01*
X178992029Y-76434821D01*
X178611485Y-76592058D01*
X178518381Y-76685000D01*
X177589805Y-76685000D01*
X177498046Y-76593081D01*
X177117777Y-76435180D01*
X176706029Y-76434821D01*
X176325485Y-76592058D01*
X176034081Y-76882954D01*
X175876180Y-77263223D01*
X175875821Y-77674971D01*
X150568000Y-77674971D01*
X150568000Y-76546434D01*
X150918821Y-77071475D01*
X151465474Y-77436737D01*
X152110296Y-77565000D01*
X153705704Y-77565000D01*
X154350526Y-77436737D01*
X154897179Y-77071475D01*
X155262441Y-76524822D01*
X155390704Y-75880000D01*
X155262441Y-75235178D01*
X154897179Y-74688525D01*
X154350526Y-74323263D01*
X153705704Y-74195000D01*
X152110296Y-74195000D01*
X151465474Y-74323263D01*
X150918821Y-74688525D01*
X150568000Y-75213566D01*
X150568000Y-72721971D01*
X193147821Y-72721971D01*
X193305058Y-73102515D01*
X193398000Y-73195619D01*
X193398000Y-88856195D01*
X193306081Y-88947954D01*
X193148180Y-89328223D01*
X193147821Y-89739971D01*
X193305058Y-90120515D01*
X193595954Y-90411919D01*
X193976223Y-90569820D01*
X194387971Y-90570179D01*
X194768515Y-90412942D01*
X195059919Y-90122046D01*
X195217820Y-89741777D01*
X195218179Y-89330029D01*
X195060942Y-88949485D01*
X194968000Y-88856381D01*
X194968000Y-83262971D01*
X205593821Y-83262971D01*
X205751058Y-83643515D01*
X206041954Y-83934919D01*
X206422223Y-84092820D01*
X206833971Y-84093179D01*
X207214515Y-83935942D01*
X207257532Y-83893000D01*
X214001108Y-83893000D01*
X214042954Y-83934919D01*
X214423223Y-84092820D01*
X214834971Y-84093179D01*
X215215515Y-83935942D01*
X215506919Y-83645046D01*
X215664820Y-83264777D01*
X215665179Y-82853029D01*
X215507942Y-82472485D01*
X215217046Y-82181081D01*
X214836777Y-82023180D01*
X214425029Y-82022821D01*
X214044485Y-82180058D01*
X214001468Y-82223000D01*
X207257892Y-82223000D01*
X207216046Y-82181081D01*
X206835777Y-82023180D01*
X206424029Y-82022821D01*
X206043485Y-82180058D01*
X205752081Y-82470954D01*
X205594180Y-82851223D01*
X205593821Y-83262971D01*
X194968000Y-83262971D01*
X194968000Y-77928971D01*
X206482821Y-77928971D01*
X206640058Y-78309515D01*
X206930954Y-78600919D01*
X207311223Y-78758820D01*
X207442777Y-78758935D01*
X208867921Y-80184079D01*
X209122594Y-80354245D01*
X209423000Y-80414000D01*
X210817442Y-80414000D01*
X211000971Y-80688670D01*
X211487152Y-81013526D01*
X212060641Y-81127600D01*
X212119359Y-81127600D01*
X212692848Y-81013526D01*
X213179029Y-80688670D01*
X213359992Y-80417839D01*
X213741510Y-80835821D01*
X214270973Y-81083968D01*
X214503000Y-80963469D01*
X214503000Y-79756000D01*
X214757000Y-79756000D01*
X214757000Y-80963469D01*
X214989027Y-81083968D01*
X215518490Y-80835821D01*
X215912688Y-80403947D01*
X216084958Y-79988026D01*
X215963817Y-79756000D01*
X214757000Y-79756000D01*
X214503000Y-79756000D01*
X214483000Y-79756000D01*
X214483000Y-79502000D01*
X214503000Y-79502000D01*
X214503000Y-79482000D01*
X214757000Y-79482000D01*
X214757000Y-79502000D01*
X215963817Y-79502000D01*
X216084958Y-79269974D01*
X215912688Y-78854053D01*
X215518490Y-78422179D01*
X215395772Y-78364664D01*
X215719029Y-78148670D01*
X216043885Y-77662489D01*
X216157959Y-77089000D01*
X216043885Y-76515511D01*
X215719029Y-76029330D01*
X215404248Y-75819000D01*
X215719029Y-75608670D01*
X216043885Y-75122489D01*
X216157959Y-74549000D01*
X216043885Y-73975511D01*
X215719029Y-73489330D01*
X215232848Y-73164474D01*
X214659359Y-73050400D01*
X214600641Y-73050400D01*
X214027152Y-73164474D01*
X213540971Y-73489330D01*
X213360000Y-73760172D01*
X213179029Y-73489330D01*
X212692848Y-73164474D01*
X212119359Y-73050400D01*
X212060641Y-73050400D01*
X211487152Y-73164474D01*
X211000971Y-73489330D01*
X210676115Y-73975511D01*
X210562041Y-74549000D01*
X210676115Y-75122489D01*
X211000971Y-75608670D01*
X211315752Y-75819000D01*
X211000971Y-76029330D01*
X210676115Y-76515511D01*
X210562041Y-77089000D01*
X210676115Y-77662489D01*
X211000971Y-78148670D01*
X211315752Y-78359000D01*
X211000971Y-78569330D01*
X210817442Y-78844000D01*
X209748158Y-78844000D01*
X208553066Y-77648908D01*
X208553179Y-77519029D01*
X208395942Y-77138485D01*
X208105046Y-76847081D01*
X207724777Y-76689180D01*
X207313029Y-76688821D01*
X206932485Y-76846058D01*
X206641081Y-77136954D01*
X206483180Y-77517223D01*
X206482821Y-77928971D01*
X194968000Y-77928971D01*
X194968000Y-73195805D01*
X195059919Y-73104046D01*
X195217820Y-72723777D01*
X195218179Y-72312029D01*
X195060942Y-71931485D01*
X194770046Y-71640081D01*
X194389777Y-71482180D01*
X193978029Y-71481821D01*
X193597485Y-71639058D01*
X193306081Y-71929954D01*
X193148180Y-72310223D01*
X193147821Y-72721971D01*
X150568000Y-72721971D01*
X150568000Y-71546434D01*
X150918821Y-72071475D01*
X151465474Y-72436737D01*
X152110296Y-72565000D01*
X153705704Y-72565000D01*
X154350526Y-72436737D01*
X154897179Y-72071475D01*
X155262441Y-71524822D01*
X155390704Y-70880000D01*
X155262441Y-70235178D01*
X154897179Y-69688525D01*
X154350526Y-69323263D01*
X153705704Y-69195000D01*
X152110296Y-69195000D01*
X151465474Y-69323263D01*
X150918821Y-69688525D01*
X150568000Y-70213566D01*
X150568000Y-66434664D01*
X150876723Y-66981672D01*
X151395846Y-67388136D01*
X152031000Y-67565000D01*
X152781000Y-67565000D01*
X152781000Y-66007000D01*
X153035000Y-66007000D01*
X153035000Y-67565000D01*
X153785000Y-67565000D01*
X154420154Y-67388136D01*
X154939277Y-66981672D01*
X155263337Y-66407489D01*
X155297654Y-66268279D01*
X155178957Y-66007000D01*
X153035000Y-66007000D01*
X152781000Y-66007000D01*
X152761000Y-66007000D01*
X152761000Y-65753000D01*
X152781000Y-65753000D01*
X152781000Y-64195000D01*
X153035000Y-64195000D01*
X153035000Y-65753000D01*
X155178957Y-65753000D01*
X155297654Y-65491721D01*
X155263337Y-65352511D01*
X154939277Y-64778328D01*
X154420154Y-64371864D01*
X153785000Y-64195000D01*
X153035000Y-64195000D01*
X152781000Y-64195000D01*
X152031000Y-64195000D01*
X151395846Y-64371864D01*
X150876723Y-64778328D01*
X150568000Y-65325336D01*
X150568000Y-62194868D01*
X150827726Y-61935142D01*
X150918821Y-62071475D01*
X151465474Y-62436737D01*
X152110296Y-62565000D01*
X153705704Y-62565000D01*
X154350526Y-62436737D01*
X154897179Y-62071475D01*
X155262441Y-61524822D01*
X155390704Y-60880000D01*
X155262441Y-60235178D01*
X154897179Y-59688525D01*
X154350526Y-59323263D01*
X153705704Y-59195000D01*
X152110296Y-59195000D01*
X151465474Y-59323263D01*
X150918821Y-59688525D01*
X150677357Y-60049902D01*
X150382459Y-60108561D01*
X150177930Y-60245223D01*
X150111566Y-60289566D01*
X149173000Y-61228132D01*
X149173000Y-56165750D01*
X150473000Y-56165750D01*
X150473000Y-57056309D01*
X150569673Y-57289698D01*
X150748301Y-57468327D01*
X150981690Y-57565000D01*
X152622250Y-57565000D01*
X152781000Y-57406250D01*
X152781000Y-56007000D01*
X153035000Y-56007000D01*
X153035000Y-57406250D01*
X153193750Y-57565000D01*
X154834310Y-57565000D01*
X155067699Y-57468327D01*
X155246327Y-57289698D01*
X155343000Y-57056309D01*
X155343000Y-56165750D01*
X155184250Y-56007000D01*
X153035000Y-56007000D01*
X152781000Y-56007000D01*
X150631750Y-56007000D01*
X150473000Y-56165750D01*
X149173000Y-56165750D01*
X149173000Y-54703691D01*
X150473000Y-54703691D01*
X150473000Y-55594250D01*
X150631750Y-55753000D01*
X152781000Y-55753000D01*
X152781000Y-54353750D01*
X153035000Y-54353750D01*
X153035000Y-55753000D01*
X155184250Y-55753000D01*
X155343000Y-55594250D01*
X155343000Y-54703691D01*
X155246327Y-54470302D01*
X155067699Y-54291673D01*
X154834310Y-54195000D01*
X153193750Y-54195000D01*
X153035000Y-54353750D01*
X152781000Y-54353750D01*
X152622250Y-54195000D01*
X150981690Y-54195000D01*
X150748301Y-54291673D01*
X150569673Y-54470302D01*
X150473000Y-54703691D01*
X149173000Y-54703691D01*
X149173000Y-52399000D01*
X162372668Y-52399000D01*
X161809364Y-52961321D01*
X161809364Y-52961321D01*
G37*
X161809364Y-52961321D02*
X161468389Y-53782481D01*
X161467613Y-54671619D01*
X161807155Y-55493372D01*
X162435321Y-56122636D01*
X163256481Y-56463611D01*
X164145619Y-56464387D01*
X164967372Y-56124845D01*
X165596636Y-55496679D01*
X165869645Y-54839200D01*
X166169971Y-55288670D01*
X166656152Y-55613526D01*
X167229641Y-55727600D01*
X167288359Y-55727600D01*
X167861848Y-55613526D01*
X168348029Y-55288670D01*
X168529000Y-55017828D01*
X168709971Y-55288670D01*
X169196152Y-55613526D01*
X169769641Y-55727600D01*
X169828359Y-55727600D01*
X170401848Y-55613526D01*
X170888029Y-55288670D01*
X171069000Y-55017828D01*
X171249971Y-55288670D01*
X171736152Y-55613526D01*
X172309641Y-55727600D01*
X172368359Y-55727600D01*
X172941848Y-55613526D01*
X173428029Y-55288670D01*
X173608992Y-55017839D01*
X173990510Y-55435821D01*
X174519973Y-55683968D01*
X174752000Y-55563469D01*
X174752000Y-54356000D01*
X174732000Y-54356000D01*
X174732000Y-54102000D01*
X174752000Y-54102000D01*
X174752000Y-54082000D01*
X175006000Y-54082000D01*
X175006000Y-54102000D01*
X175026000Y-54102000D01*
X175026000Y-54356000D01*
X175006000Y-54356000D01*
X175006000Y-55563469D01*
X175238027Y-55683968D01*
X175767490Y-55435821D01*
X176149008Y-55017839D01*
X176329971Y-55288670D01*
X176816152Y-55613526D01*
X177389641Y-55727600D01*
X177448359Y-55727600D01*
X177747866Y-55668024D01*
X178111511Y-56031669D01*
X178006777Y-55988180D01*
X177595029Y-55987821D01*
X177214485Y-56145058D01*
X176923081Y-56435954D01*
X176765180Y-56816223D01*
X176764821Y-57227971D01*
X176922058Y-57608515D01*
X177212954Y-57899919D01*
X177593223Y-58057820D01*
X177907872Y-58058094D01*
X177907821Y-58116971D01*
X178065058Y-58497515D01*
X178355954Y-58788919D01*
X178736223Y-58946820D01*
X179147971Y-58947179D01*
X179528515Y-58789942D01*
X179621619Y-58697000D01*
X180296195Y-58697000D01*
X180386440Y-58787402D01*
X178768921Y-60404921D01*
X178598755Y-60659593D01*
X178574105Y-60783515D01*
X178539000Y-60960000D01*
X178539000Y-61130973D01*
X178387777Y-61068180D01*
X177976029Y-61067821D01*
X177595485Y-61225058D01*
X177304081Y-61515954D01*
X177146180Y-61896223D01*
X177145821Y-62307971D01*
X177303058Y-62688515D01*
X177396000Y-62781619D01*
X177396000Y-63837195D01*
X177304081Y-63928954D01*
X177146180Y-64309223D01*
X177145821Y-64720971D01*
X177303058Y-65101515D01*
X177593954Y-65392919D01*
X177974223Y-65550820D01*
X178353571Y-65551151D01*
X178289180Y-65706223D01*
X178288821Y-66117971D01*
X178301272Y-66148105D01*
X177976029Y-66147821D01*
X177595485Y-66305058D01*
X177304081Y-66595954D01*
X177146180Y-66976223D01*
X177145821Y-67387971D01*
X177303058Y-67768515D01*
X177396000Y-67861619D01*
X177396000Y-68453000D01*
X177455755Y-68753407D01*
X177625921Y-69008079D01*
X177907934Y-69290092D01*
X177907821Y-69419971D01*
X178065058Y-69800515D01*
X178355954Y-70091919D01*
X178736223Y-70249820D01*
X179147971Y-70250179D01*
X179528515Y-70092942D01*
X179819919Y-69802046D01*
X179950325Y-69487993D01*
X180163971Y-69488179D01*
X180544515Y-69330942D01*
X180835919Y-69040046D01*
X180993820Y-68659777D01*
X180994179Y-68248029D01*
X180836942Y-67867485D01*
X180546046Y-67576081D01*
X180165777Y-67418180D01*
X180109000Y-67418130D01*
X180109000Y-66591805D01*
X180200919Y-66500046D01*
X180358820Y-66119777D01*
X180359179Y-65708029D01*
X180201942Y-65327485D01*
X179911046Y-65036081D01*
X179530777Y-64878180D01*
X179151429Y-64877849D01*
X179215820Y-64722777D01*
X179216095Y-64407906D01*
X179528971Y-64408179D01*
X179909515Y-64250942D01*
X180200919Y-63960046D01*
X180358820Y-63579777D01*
X180359179Y-63168029D01*
X180201942Y-62787485D01*
X180109000Y-62694381D01*
X180109000Y-61752292D01*
X180321007Y-61840325D01*
X180320821Y-62053971D01*
X180478058Y-62434515D01*
X180768954Y-62725919D01*
X181149223Y-62883820D01*
X181560971Y-62884179D01*
X181941515Y-62726942D01*
X182034619Y-62634000D01*
X184500708Y-62634000D01*
X184385180Y-62912223D01*
X184384821Y-63323971D01*
X184542058Y-63704515D01*
X184832954Y-63995919D01*
X185213223Y-64153820D01*
X185624971Y-64154179D01*
X186005515Y-63996942D01*
X186098619Y-63904000D01*
X197695195Y-63904000D01*
X197786954Y-63995919D01*
X198167223Y-64153820D01*
X198578971Y-64154179D01*
X198959515Y-63996942D01*
X199250919Y-63706046D01*
X199408820Y-63325777D01*
X199409179Y-62914029D01*
X199251942Y-62533485D01*
X198961046Y-62242081D01*
X198580777Y-62084180D01*
X198169029Y-62083821D01*
X198011960Y-62148720D01*
X198012179Y-61898029D01*
X197854942Y-61517485D01*
X197739000Y-61401341D01*
X197739000Y-60656971D01*
X205593821Y-60656971D01*
X205751058Y-61037515D01*
X205863788Y-61150442D01*
X205752081Y-61261954D01*
X205594180Y-61642223D01*
X205593821Y-62053971D01*
X205751058Y-62434515D01*
X206041954Y-62725919D01*
X206422223Y-62883820D01*
X206833971Y-62884179D01*
X207214515Y-62726942D01*
X207307619Y-62634000D01*
X211030195Y-62634000D01*
X211121954Y-62725919D01*
X211502223Y-62883820D01*
X211913971Y-62884179D01*
X212294515Y-62726942D01*
X212585919Y-62436046D01*
X212743820Y-62055777D01*
X212744179Y-61644029D01*
X212586942Y-61263485D01*
X212296046Y-60972081D01*
X211915777Y-60814180D01*
X211536429Y-60813849D01*
X211600820Y-60658777D01*
X211601179Y-60247029D01*
X211443942Y-59866485D01*
X211153046Y-59575081D01*
X210772777Y-59417180D01*
X210361029Y-59416821D01*
X209980485Y-59574058D01*
X209887381Y-59667000D01*
X207307805Y-59667000D01*
X207216046Y-59575081D01*
X206835777Y-59417180D01*
X206424029Y-59416821D01*
X206043485Y-59574058D01*
X205752081Y-59864954D01*
X205594180Y-60245223D01*
X205593821Y-60656971D01*
X197739000Y-60656971D01*
X197739000Y-60094000D01*
X198711417Y-60094000D01*
X198929954Y-60312919D01*
X199310223Y-60470820D01*
X199721971Y-60471179D01*
X200102515Y-60313942D01*
X200393919Y-60023046D01*
X200551820Y-59642777D01*
X200551984Y-59455017D01*
X200737971Y-59455179D01*
X201118515Y-59297942D01*
X201409919Y-59007046D01*
X201567820Y-58626777D01*
X201568179Y-58215029D01*
X201410942Y-57834485D01*
X201234712Y-57657947D01*
X201409919Y-57483046D01*
X201567820Y-57102777D01*
X201568179Y-56691029D01*
X201410942Y-56310485D01*
X201318000Y-56217381D01*
X201318000Y-55636967D01*
X201773641Y-55727600D01*
X201832359Y-55727600D01*
X202405848Y-55613526D01*
X202892029Y-55288670D01*
X203073000Y-55017828D01*
X203253971Y-55288670D01*
X203740152Y-55613526D01*
X204313641Y-55727600D01*
X204372359Y-55727600D01*
X204945848Y-55613526D01*
X205432029Y-55288670D01*
X205613000Y-55017828D01*
X205793971Y-55288670D01*
X206280152Y-55613526D01*
X206853641Y-55727600D01*
X206912359Y-55727600D01*
X207485848Y-55613526D01*
X207972029Y-55288670D01*
X208153000Y-55017828D01*
X208333971Y-55288670D01*
X208820152Y-55613526D01*
X209393641Y-55727600D01*
X209452359Y-55727600D01*
X210025848Y-55613526D01*
X210512029Y-55288670D01*
X210693000Y-55017828D01*
X210873971Y-55288670D01*
X211360152Y-55613526D01*
X211933641Y-55727600D01*
X211992359Y-55727600D01*
X212565848Y-55613526D01*
X213052029Y-55288670D01*
X213376885Y-54802489D01*
X213490959Y-54229000D01*
X213376885Y-53655511D01*
X213052029Y-53169330D01*
X212565848Y-52844474D01*
X211992359Y-52730400D01*
X211933641Y-52730400D01*
X211360152Y-52844474D01*
X210873971Y-53169330D01*
X210693000Y-53440172D01*
X210512029Y-53169330D01*
X210025848Y-52844474D01*
X209452359Y-52730400D01*
X209393641Y-52730400D01*
X208820152Y-52844474D01*
X208333971Y-53169330D01*
X208153000Y-53440172D01*
X207972029Y-53169330D01*
X207485848Y-52844474D01*
X206912359Y-52730400D01*
X206853641Y-52730400D01*
X206280152Y-52844474D01*
X205793971Y-53169330D01*
X205613000Y-53440172D01*
X205432029Y-53169330D01*
X204945848Y-52844474D01*
X204372359Y-52730400D01*
X204313641Y-52730400D01*
X203740152Y-52844474D01*
X203253971Y-53169330D01*
X203073000Y-53440172D01*
X202892029Y-53169330D01*
X202405848Y-52844474D01*
X201832359Y-52730400D01*
X201773641Y-52730400D01*
X201211253Y-52842266D01*
X201088079Y-52657921D01*
X201088076Y-52657919D01*
X200829158Y-52399000D01*
X212684908Y-52399000D01*
X213793000Y-53507091D01*
X213793000Y-64389000D01*
X213847046Y-64660705D01*
X214000954Y-64891046D01*
X216333000Y-67223091D01*
X216333000Y-68138668D01*
X215770679Y-67575364D01*
X214949519Y-67234389D01*
X214060381Y-67233613D01*
X213238628Y-67573155D01*
X212609364Y-68201321D01*
X212268389Y-69022481D01*
X212267613Y-69911619D01*
X212607155Y-70733372D01*
X213235321Y-71362636D01*
X214056481Y-71703611D01*
X214945619Y-71704387D01*
X215767372Y-71364845D01*
X216333000Y-70800204D01*
X216333000Y-96078668D01*
X215770679Y-95515364D01*
X214949519Y-95174389D01*
X214060381Y-95173613D01*
X213238628Y-95513155D01*
X212609364Y-96141321D01*
X212268389Y-96962481D01*
X212267613Y-97851619D01*
X212607155Y-98673372D01*
X213235321Y-99302636D01*
X214056481Y-99643611D01*
X214945619Y-99644387D01*
X215767372Y-99304845D01*
X216333000Y-98740204D01*
X216333000Y-100924909D01*
X214000954Y-103256954D01*
X213847046Y-103487295D01*
X213793000Y-103759000D01*
X213793000Y-104319000D01*
X163763332Y-104319000D01*
X164326636Y-103756679D01*
X164667611Y-102935519D01*
X164668000Y-102489000D01*
X174875041Y-102489000D01*
X174989115Y-103062489D01*
X175313971Y-103548670D01*
X175800152Y-103873526D01*
X176373641Y-103987600D01*
X176432359Y-103987600D01*
X177005848Y-103873526D01*
X177492029Y-103548670D01*
X177673000Y-103277828D01*
X177853971Y-103548670D01*
X178340152Y-103873526D01*
X178913641Y-103987600D01*
X178972359Y-103987600D01*
X179545848Y-103873526D01*
X180032029Y-103548670D01*
X180213000Y-103277828D01*
X180393971Y-103548670D01*
X180880152Y-103873526D01*
X181453641Y-103987600D01*
X181512359Y-103987600D01*
X182085848Y-103873526D01*
X182572029Y-103548670D01*
X182753000Y-103277828D01*
X182933971Y-103548670D01*
X183420152Y-103873526D01*
X183993641Y-103987600D01*
X184052359Y-103987600D01*
X184625848Y-103873526D01*
X185112029Y-103548670D01*
X185293000Y-103277828D01*
X185473971Y-103548670D01*
X185960152Y-103873526D01*
X186533641Y-103987600D01*
X186592359Y-103987600D01*
X187165848Y-103873526D01*
X187652029Y-103548670D01*
X187832992Y-103277839D01*
X188214510Y-103695821D01*
X188743973Y-103943968D01*
X188976000Y-103823469D01*
X188976000Y-102616000D01*
X189230000Y-102616000D01*
X189230000Y-103823469D01*
X189462027Y-103943968D01*
X189991490Y-103695821D01*
X190373000Y-103277848D01*
X190754510Y-103695821D01*
X191283973Y-103943968D01*
X191516000Y-103823469D01*
X191516000Y-102616000D01*
X189230000Y-102616000D01*
X188976000Y-102616000D01*
X188956000Y-102616000D01*
X188956000Y-102362000D01*
X188976000Y-102362000D01*
X188976000Y-101154531D01*
X189230000Y-101154531D01*
X189230000Y-102362000D01*
X191516000Y-102362000D01*
X191516000Y-101154531D01*
X191770000Y-101154531D01*
X191770000Y-102362000D01*
X191790000Y-102362000D01*
X191790000Y-102616000D01*
X191770000Y-102616000D01*
X191770000Y-103823469D01*
X192002027Y-103943968D01*
X192531490Y-103695821D01*
X192913008Y-103277839D01*
X193093971Y-103548670D01*
X193580152Y-103873526D01*
X194153641Y-103987600D01*
X194212359Y-103987600D01*
X194785848Y-103873526D01*
X195272029Y-103548670D01*
X195596885Y-103062489D01*
X195710959Y-102489000D01*
X197735041Y-102489000D01*
X197849115Y-103062489D01*
X198173971Y-103548670D01*
X198660152Y-103873526D01*
X199233641Y-103987600D01*
X199292359Y-103987600D01*
X199865848Y-103873526D01*
X200352029Y-103548670D01*
X200533000Y-103277828D01*
X200713971Y-103548670D01*
X201200152Y-103873526D01*
X201773641Y-103987600D01*
X201832359Y-103987600D01*
X202405848Y-103873526D01*
X202892029Y-103548670D01*
X203073000Y-103277828D01*
X203253971Y-103548670D01*
X203740152Y-103873526D01*
X204313641Y-103987600D01*
X204372359Y-103987600D01*
X204945848Y-103873526D01*
X205432029Y-103548670D01*
X205613000Y-103277828D01*
X205793971Y-103548670D01*
X206280152Y-103873526D01*
X206853641Y-103987600D01*
X206912359Y-103987600D01*
X207485848Y-103873526D01*
X207972029Y-103548670D01*
X208153000Y-103277828D01*
X208333971Y-103548670D01*
X208820152Y-103873526D01*
X209393641Y-103987600D01*
X209452359Y-103987600D01*
X210025848Y-103873526D01*
X210512029Y-103548670D01*
X210693000Y-103277828D01*
X210873971Y-103548670D01*
X211360152Y-103873526D01*
X211933641Y-103987600D01*
X211992359Y-103987600D01*
X212565848Y-103873526D01*
X213052029Y-103548670D01*
X213376885Y-103062489D01*
X213490959Y-102489000D01*
X213376885Y-101915511D01*
X213052029Y-101429330D01*
X212565848Y-101104474D01*
X211992359Y-100990400D01*
X211933641Y-100990400D01*
X211360152Y-101104474D01*
X210873971Y-101429330D01*
X210693000Y-101700172D01*
X210512029Y-101429330D01*
X210025848Y-101104474D01*
X209452359Y-100990400D01*
X209393641Y-100990400D01*
X208820152Y-101104474D01*
X208333971Y-101429330D01*
X208153000Y-101700172D01*
X207972029Y-101429330D01*
X207485848Y-101104474D01*
X206912359Y-100990400D01*
X206853641Y-100990400D01*
X206280152Y-101104474D01*
X205793971Y-101429330D01*
X205613000Y-101700172D01*
X205432029Y-101429330D01*
X204945848Y-101104474D01*
X204372359Y-100990400D01*
X204313641Y-100990400D01*
X203740152Y-101104474D01*
X203253971Y-101429330D01*
X203073000Y-101700172D01*
X202892029Y-101429330D01*
X202405848Y-101104474D01*
X201832359Y-100990400D01*
X201773641Y-100990400D01*
X201200152Y-101104474D01*
X200713971Y-101429330D01*
X200533000Y-101700172D01*
X200352029Y-101429330D01*
X199865848Y-101104474D01*
X199292359Y-100990400D01*
X199233641Y-100990400D01*
X198660152Y-101104474D01*
X198173971Y-101429330D01*
X197849115Y-101915511D01*
X197735041Y-102489000D01*
X195710959Y-102489000D01*
X195596885Y-101915511D01*
X195272029Y-101429330D01*
X194785848Y-101104474D01*
X194212359Y-100990400D01*
X194153641Y-100990400D01*
X193580152Y-101104474D01*
X193093971Y-101429330D01*
X192913008Y-101700161D01*
X192531490Y-101282179D01*
X192002027Y-101034032D01*
X191770000Y-101154531D01*
X191516000Y-101154531D01*
X191283973Y-101034032D01*
X190754510Y-101282179D01*
X190373000Y-101700152D01*
X189991490Y-101282179D01*
X189462027Y-101034032D01*
X189230000Y-101154531D01*
X188976000Y-101154531D01*
X188743973Y-101034032D01*
X188214510Y-101282179D01*
X187832992Y-101700161D01*
X187652029Y-101429330D01*
X187165848Y-101104474D01*
X186592359Y-100990400D01*
X186533641Y-100990400D01*
X185960152Y-101104474D01*
X185473971Y-101429330D01*
X185293000Y-101700172D01*
X185112029Y-101429330D01*
X184625848Y-101104474D01*
X184052359Y-100990400D01*
X183993641Y-100990400D01*
X183420152Y-101104474D01*
X182933971Y-101429330D01*
X182753000Y-101700172D01*
X182572029Y-101429330D01*
X182085848Y-101104474D01*
X181512359Y-100990400D01*
X181453641Y-100990400D01*
X180880152Y-101104474D01*
X180393971Y-101429330D01*
X180213000Y-101700172D01*
X180032029Y-101429330D01*
X179545848Y-101104474D01*
X178972359Y-100990400D01*
X178913641Y-100990400D01*
X178340152Y-101104474D01*
X177853971Y-101429330D01*
X177673000Y-101700172D01*
X177492029Y-101429330D01*
X177005848Y-101104474D01*
X176432359Y-100990400D01*
X176373641Y-100990400D01*
X175800152Y-101104474D01*
X175313971Y-101429330D01*
X174989115Y-101915511D01*
X174875041Y-102489000D01*
X164668000Y-102489000D01*
X164668387Y-102046381D01*
X164328845Y-101224628D01*
X163700679Y-100595364D01*
X162879519Y-100254389D01*
X161990381Y-100253613D01*
X161168628Y-100593155D01*
X160539364Y-101221321D01*
X160198389Y-102042481D01*
X160197613Y-102931619D01*
X160537155Y-103753372D01*
X161101796Y-104319000D01*
X149173000Y-104319000D01*
X149173000Y-100950868D01*
X150348873Y-102126741D01*
X150348821Y-102185971D01*
X150506058Y-102566515D01*
X150796954Y-102857919D01*
X151177223Y-103015820D01*
X151588971Y-103016179D01*
X151969515Y-102858942D01*
X152260919Y-102568046D01*
X152418820Y-102187777D01*
X152419179Y-101776029D01*
X152261942Y-101395485D01*
X151971046Y-101104081D01*
X151590777Y-100946180D01*
X151529995Y-100946127D01*
X150568000Y-99984132D01*
X150568000Y-92279971D01*
X180828821Y-92279971D01*
X180986058Y-92660515D01*
X181079000Y-92753619D01*
X181079000Y-93555195D01*
X180987081Y-93646954D01*
X180829180Y-94027223D01*
X180828821Y-94438971D01*
X180986058Y-94819515D01*
X181276954Y-95110919D01*
X181657223Y-95268820D01*
X182068971Y-95269179D01*
X182449515Y-95111942D01*
X182740919Y-94821046D01*
X182898820Y-94440777D01*
X182899179Y-94029029D01*
X182741942Y-93648485D01*
X182649000Y-93555381D01*
X182649000Y-92753805D01*
X182740919Y-92662046D01*
X182898820Y-92281777D01*
X182898821Y-92279971D01*
X199624821Y-92279971D01*
X199782058Y-92660515D01*
X200072954Y-92951919D01*
X200254952Y-93027491D01*
X200074485Y-93102058D01*
X199783081Y-93392954D01*
X199625180Y-93773223D01*
X199624821Y-94184971D01*
X199782058Y-94565515D01*
X200072954Y-94856919D01*
X200453223Y-95014820D01*
X200864971Y-95015179D01*
X201245515Y-94857942D01*
X201288532Y-94815000D01*
X208667108Y-94815000D01*
X208708954Y-94856919D01*
X209089223Y-95014820D01*
X209500971Y-95015179D01*
X209881515Y-94857942D01*
X210172919Y-94567046D01*
X210330820Y-94186777D01*
X210331179Y-93775029D01*
X210173942Y-93394485D01*
X209883046Y-93103081D01*
X209701048Y-93027509D01*
X209881515Y-92952942D01*
X210172919Y-92662046D01*
X210330820Y-92281777D01*
X210331179Y-91870029D01*
X210173942Y-91489485D01*
X209934212Y-91249337D01*
X210172919Y-91011046D01*
X210330820Y-90630777D01*
X210331179Y-90219029D01*
X210173942Y-89838485D01*
X210124712Y-89789169D01*
X210172919Y-89741046D01*
X210330820Y-89360777D01*
X210331179Y-88949029D01*
X210173942Y-88568485D01*
X209883046Y-88277081D01*
X209502777Y-88119180D01*
X209091029Y-88118821D01*
X208710485Y-88276058D01*
X208617381Y-88369000D01*
X204386805Y-88369000D01*
X204295046Y-88277081D01*
X203914777Y-88119180D01*
X203503029Y-88118821D01*
X203122485Y-88276058D01*
X202831081Y-88566954D01*
X202673180Y-88947223D01*
X202672821Y-89358971D01*
X202830058Y-89739515D01*
X203120954Y-90030919D01*
X203501223Y-90188820D01*
X203626663Y-90188929D01*
X203562180Y-90344223D01*
X203561821Y-90755971D01*
X203719058Y-91136515D01*
X203872275Y-91290000D01*
X201338805Y-91290000D01*
X201247046Y-91198081D01*
X200866777Y-91040180D01*
X200455029Y-91039821D01*
X200074485Y-91197058D01*
X199783081Y-91487954D01*
X199625180Y-91868223D01*
X199624821Y-92279971D01*
X182898821Y-92279971D01*
X182899179Y-91870029D01*
X182741942Y-91489485D01*
X182451046Y-91198081D01*
X182070777Y-91040180D01*
X181659029Y-91039821D01*
X181278485Y-91197058D01*
X180987081Y-91487954D01*
X180829180Y-91868223D01*
X180828821Y-92279971D01*
X150568000Y-92279971D01*
X150568000Y-77674971D01*
X175875821Y-77674971D01*
X176027446Y-78041933D01*
X175876180Y-78406223D01*
X175875821Y-78817971D01*
X176027446Y-79184933D01*
X175876180Y-79549223D01*
X175875821Y-79960971D01*
X176027446Y-80327933D01*
X175876180Y-80692223D01*
X175875821Y-81103971D01*
X176027446Y-81470933D01*
X175876180Y-81835223D01*
X175875821Y-82246971D01*
X176033058Y-82627515D01*
X176323954Y-82918919D01*
X176704223Y-83076820D01*
X177115971Y-83077179D01*
X177496515Y-82919942D01*
X177589619Y-82827000D01*
X178518195Y-82827000D01*
X178609954Y-82918919D01*
X178990223Y-83076820D01*
X179401971Y-83077179D01*
X179782515Y-82919942D01*
X180073919Y-82629046D01*
X180151006Y-82443398D01*
X182736250Y-82443398D01*
X182946746Y-82952837D01*
X183336173Y-83342944D01*
X183845244Y-83554329D01*
X184396458Y-83554810D01*
X184905897Y-83344314D01*
X185296004Y-82954887D01*
X185507389Y-82445816D01*
X185507391Y-82443398D01*
X187618130Y-82443398D01*
X187828626Y-82952837D01*
X188218053Y-83342944D01*
X188727124Y-83554329D01*
X189278338Y-83554810D01*
X189787777Y-83344314D01*
X190177884Y-82954887D01*
X190389269Y-82445816D01*
X190389750Y-81894602D01*
X190179254Y-81385163D01*
X189789827Y-80995056D01*
X189280756Y-80783671D01*
X188729542Y-80783190D01*
X188220103Y-80993686D01*
X187829996Y-81383113D01*
X187618611Y-81892184D01*
X187618130Y-82443398D01*
X185507391Y-82443398D01*
X185507870Y-81894602D01*
X185297374Y-81385163D01*
X184907947Y-80995056D01*
X184398876Y-80783671D01*
X183847662Y-80783190D01*
X183338223Y-80993686D01*
X182948116Y-81383113D01*
X182736731Y-81892184D01*
X182736250Y-82443398D01*
X180151006Y-82443398D01*
X180231820Y-82248777D01*
X180232179Y-81837029D01*
X180080554Y-81470067D01*
X180231820Y-81105777D01*
X180232179Y-80694029D01*
X180080554Y-80327067D01*
X180231820Y-79962777D01*
X180232179Y-79551029D01*
X180080554Y-79184067D01*
X180231820Y-78819777D01*
X180232179Y-78408029D01*
X180080554Y-78041067D01*
X180231820Y-77676777D01*
X180232179Y-77265029D01*
X180074942Y-76884485D01*
X179784046Y-76593081D01*
X179403777Y-76435180D01*
X178992029Y-76434821D01*
X178611485Y-76592058D01*
X178518381Y-76685000D01*
X177589805Y-76685000D01*
X177498046Y-76593081D01*
X177117777Y-76435180D01*
X176706029Y-76434821D01*
X176325485Y-76592058D01*
X176034081Y-76882954D01*
X175876180Y-77263223D01*
X175875821Y-77674971D01*
X150568000Y-77674971D01*
X150568000Y-76546434D01*
X150918821Y-77071475D01*
X151465474Y-77436737D01*
X152110296Y-77565000D01*
X153705704Y-77565000D01*
X154350526Y-77436737D01*
X154897179Y-77071475D01*
X155262441Y-76524822D01*
X155390704Y-75880000D01*
X155262441Y-75235178D01*
X154897179Y-74688525D01*
X154350526Y-74323263D01*
X153705704Y-74195000D01*
X152110296Y-74195000D01*
X151465474Y-74323263D01*
X150918821Y-74688525D01*
X150568000Y-75213566D01*
X150568000Y-72721971D01*
X193147821Y-72721971D01*
X193305058Y-73102515D01*
X193398000Y-73195619D01*
X193398000Y-88856195D01*
X193306081Y-88947954D01*
X193148180Y-89328223D01*
X193147821Y-89739971D01*
X193305058Y-90120515D01*
X193595954Y-90411919D01*
X193976223Y-90569820D01*
X194387971Y-90570179D01*
X194768515Y-90412942D01*
X195059919Y-90122046D01*
X195217820Y-89741777D01*
X195218179Y-89330029D01*
X195060942Y-88949485D01*
X194968000Y-88856381D01*
X194968000Y-83262971D01*
X205593821Y-83262971D01*
X205751058Y-83643515D01*
X206041954Y-83934919D01*
X206422223Y-84092820D01*
X206833971Y-84093179D01*
X207214515Y-83935942D01*
X207257532Y-83893000D01*
X214001108Y-83893000D01*
X214042954Y-83934919D01*
X214423223Y-84092820D01*
X214834971Y-84093179D01*
X215215515Y-83935942D01*
X215506919Y-83645046D01*
X215664820Y-83264777D01*
X215665179Y-82853029D01*
X215507942Y-82472485D01*
X215217046Y-82181081D01*
X214836777Y-82023180D01*
X214425029Y-82022821D01*
X214044485Y-82180058D01*
X214001468Y-82223000D01*
X207257892Y-82223000D01*
X207216046Y-82181081D01*
X206835777Y-82023180D01*
X206424029Y-82022821D01*
X206043485Y-82180058D01*
X205752081Y-82470954D01*
X205594180Y-82851223D01*
X205593821Y-83262971D01*
X194968000Y-83262971D01*
X194968000Y-77928971D01*
X206482821Y-77928971D01*
X206640058Y-78309515D01*
X206930954Y-78600919D01*
X207311223Y-78758820D01*
X207442777Y-78758935D01*
X208867921Y-80184079D01*
X209122594Y-80354245D01*
X209423000Y-80414000D01*
X210817442Y-80414000D01*
X211000971Y-80688670D01*
X211487152Y-81013526D01*
X212060641Y-81127600D01*
X212119359Y-81127600D01*
X212692848Y-81013526D01*
X213179029Y-80688670D01*
X213359992Y-80417839D01*
X213741510Y-80835821D01*
X214270973Y-81083968D01*
X214503000Y-80963469D01*
X214503000Y-79756000D01*
X214757000Y-79756000D01*
X214757000Y-80963469D01*
X214989027Y-81083968D01*
X215518490Y-80835821D01*
X215912688Y-80403947D01*
X216084958Y-79988026D01*
X215963817Y-79756000D01*
X214757000Y-79756000D01*
X214503000Y-79756000D01*
X214483000Y-79756000D01*
X214483000Y-79502000D01*
X214503000Y-79502000D01*
X214503000Y-79482000D01*
X214757000Y-79482000D01*
X214757000Y-79502000D01*
X215963817Y-79502000D01*
X216084958Y-79269974D01*
X215912688Y-78854053D01*
X215518490Y-78422179D01*
X215395772Y-78364664D01*
X215719029Y-78148670D01*
X216043885Y-77662489D01*
X216157959Y-77089000D01*
X216043885Y-76515511D01*
X215719029Y-76029330D01*
X215404248Y-75819000D01*
X215719029Y-75608670D01*
X216043885Y-75122489D01*
X216157959Y-74549000D01*
X216043885Y-73975511D01*
X215719029Y-73489330D01*
X215232848Y-73164474D01*
X214659359Y-73050400D01*
X214600641Y-73050400D01*
X214027152Y-73164474D01*
X213540971Y-73489330D01*
X213360000Y-73760172D01*
X213179029Y-73489330D01*
X212692848Y-73164474D01*
X212119359Y-73050400D01*
X212060641Y-73050400D01*
X211487152Y-73164474D01*
X211000971Y-73489330D01*
X210676115Y-73975511D01*
X210562041Y-74549000D01*
X210676115Y-75122489D01*
X211000971Y-75608670D01*
X211315752Y-75819000D01*
X211000971Y-76029330D01*
X210676115Y-76515511D01*
X210562041Y-77089000D01*
X210676115Y-77662489D01*
X211000971Y-78148670D01*
X211315752Y-78359000D01*
X211000971Y-78569330D01*
X210817442Y-78844000D01*
X209748158Y-78844000D01*
X208553066Y-77648908D01*
X208553179Y-77519029D01*
X208395942Y-77138485D01*
X208105046Y-76847081D01*
X207724777Y-76689180D01*
X207313029Y-76688821D01*
X206932485Y-76846058D01*
X206641081Y-77136954D01*
X206483180Y-77517223D01*
X206482821Y-77928971D01*
X194968000Y-77928971D01*
X194968000Y-73195805D01*
X195059919Y-73104046D01*
X195217820Y-72723777D01*
X195218179Y-72312029D01*
X195060942Y-71931485D01*
X194770046Y-71640081D01*
X194389777Y-71482180D01*
X193978029Y-71481821D01*
X193597485Y-71639058D01*
X193306081Y-71929954D01*
X193148180Y-72310223D01*
X193147821Y-72721971D01*
X150568000Y-72721971D01*
X150568000Y-71546434D01*
X150918821Y-72071475D01*
X151465474Y-72436737D01*
X152110296Y-72565000D01*
X153705704Y-72565000D01*
X154350526Y-72436737D01*
X154897179Y-72071475D01*
X155262441Y-71524822D01*
X155390704Y-70880000D01*
X155262441Y-70235178D01*
X154897179Y-69688525D01*
X154350526Y-69323263D01*
X153705704Y-69195000D01*
X152110296Y-69195000D01*
X151465474Y-69323263D01*
X150918821Y-69688525D01*
X150568000Y-70213566D01*
X150568000Y-66434664D01*
X150876723Y-66981672D01*
X151395846Y-67388136D01*
X152031000Y-67565000D01*
X152781000Y-67565000D01*
X152781000Y-66007000D01*
X153035000Y-66007000D01*
X153035000Y-67565000D01*
X153785000Y-67565000D01*
X154420154Y-67388136D01*
X154939277Y-66981672D01*
X155263337Y-66407489D01*
X155297654Y-66268279D01*
X155178957Y-66007000D01*
X153035000Y-66007000D01*
X152781000Y-66007000D01*
X152761000Y-66007000D01*
X152761000Y-65753000D01*
X152781000Y-65753000D01*
X152781000Y-64195000D01*
X153035000Y-64195000D01*
X153035000Y-65753000D01*
X155178957Y-65753000D01*
X155297654Y-65491721D01*
X155263337Y-65352511D01*
X154939277Y-64778328D01*
X154420154Y-64371864D01*
X153785000Y-64195000D01*
X153035000Y-64195000D01*
X152781000Y-64195000D01*
X152031000Y-64195000D01*
X151395846Y-64371864D01*
X150876723Y-64778328D01*
X150568000Y-65325336D01*
X150568000Y-62194868D01*
X150827726Y-61935142D01*
X150918821Y-62071475D01*
X151465474Y-62436737D01*
X152110296Y-62565000D01*
X153705704Y-62565000D01*
X154350526Y-62436737D01*
X154897179Y-62071475D01*
X155262441Y-61524822D01*
X155390704Y-60880000D01*
X155262441Y-60235178D01*
X154897179Y-59688525D01*
X154350526Y-59323263D01*
X153705704Y-59195000D01*
X152110296Y-59195000D01*
X151465474Y-59323263D01*
X150918821Y-59688525D01*
X150677357Y-60049902D01*
X150382459Y-60108561D01*
X150177930Y-60245223D01*
X150111566Y-60289566D01*
X149173000Y-61228132D01*
X149173000Y-56165750D01*
X150473000Y-56165750D01*
X150473000Y-57056309D01*
X150569673Y-57289698D01*
X150748301Y-57468327D01*
X150981690Y-57565000D01*
X152622250Y-57565000D01*
X152781000Y-57406250D01*
X152781000Y-56007000D01*
X153035000Y-56007000D01*
X153035000Y-57406250D01*
X153193750Y-57565000D01*
X154834310Y-57565000D01*
X155067699Y-57468327D01*
X155246327Y-57289698D01*
X155343000Y-57056309D01*
X155343000Y-56165750D01*
X155184250Y-56007000D01*
X153035000Y-56007000D01*
X152781000Y-56007000D01*
X150631750Y-56007000D01*
X150473000Y-56165750D01*
X149173000Y-56165750D01*
X149173000Y-54703691D01*
X150473000Y-54703691D01*
X150473000Y-55594250D01*
X150631750Y-55753000D01*
X152781000Y-55753000D01*
X152781000Y-54353750D01*
X153035000Y-54353750D01*
X153035000Y-55753000D01*
X155184250Y-55753000D01*
X155343000Y-55594250D01*
X155343000Y-54703691D01*
X155246327Y-54470302D01*
X155067699Y-54291673D01*
X154834310Y-54195000D01*
X153193750Y-54195000D01*
X153035000Y-54353750D01*
X152781000Y-54353750D01*
X152622250Y-54195000D01*
X150981690Y-54195000D01*
X150748301Y-54291673D01*
X150569673Y-54470302D01*
X150473000Y-54703691D01*
X149173000Y-54703691D01*
X149173000Y-52399000D01*
X162372668Y-52399000D01*
X161809364Y-52961321D01*
M02*
