G04 #@! TF.FileFunction,Soldermask,Top*
%FSLAX46Y46*%
G04 Gerber Fmt 4.6, Leading zero omitted, Abs format (unit mm)*
G04 Created by KiCad (PCBNEW 4.0.6) date Tuesday, 13 February 2018 20:17:47*
%MOMM*%
%LPD*%
G01*
G04 APERTURE LIST*
%ADD10C,0.100000*%
%ADD11O,2.127200X2.127200*%
%ADD12C,3.600000*%
%ADD13R,2.000000X2.400000*%
%ADD14R,2.400000X2.000000*%
%ADD15R,2.400000X2.900000*%
%ADD16C,1.901140*%
%ADD17R,2.900000X4.150000*%
%ADD18R,2.200860X1.997660*%
%ADD19R,2.300000X1.200000*%
%ADD20R,2.200860X3.900120*%
%ADD21R,3.900120X2.200860*%
%ADD22R,4.000000X2.500000*%
%ADD23O,4.000000X2.500000*%
%ADD24R,2.400000X2.100000*%
%ADD25R,1.200000X2.300000*%
%ADD26R,2.000000X0.950000*%
%ADD27R,0.950000X2.000000*%
%ADD28R,1.960000X1.050000*%
%ADD29R,1.950000X1.000000*%
%ADD30R,5.000000X1.790000*%
%ADD31R,9.800000X11.200000*%
%ADD32R,3.100000X4.150000*%
G04 APERTURE END LIST*
D10*
D11*
X212090000Y-79629000D03*
X214630000Y-79629000D03*
X214630000Y-77089000D03*
X212090000Y-77089000D03*
X214630000Y-74549000D03*
X199263000Y-102489000D03*
X194183000Y-102489000D03*
X191643000Y-102489000D03*
X189103000Y-102489000D03*
X186563000Y-102489000D03*
X184023000Y-102489000D03*
X181483000Y-102489000D03*
X178943000Y-102489000D03*
X211963000Y-54229000D03*
X209423000Y-54229000D03*
X206883000Y-54229000D03*
X204343000Y-54229000D03*
X201803000Y-54229000D03*
X199263000Y-54229000D03*
X196723000Y-54229000D03*
X194183000Y-54229000D03*
X174879000Y-54229000D03*
X190119000Y-54229000D03*
X187579000Y-54229000D03*
X185039000Y-54229000D03*
D12*
X214503000Y-97409000D03*
X214503000Y-69469000D03*
X163703000Y-54229000D03*
X162433000Y-102489000D03*
D11*
X167259000Y-54229000D03*
X169799000Y-54229000D03*
X172339000Y-54229000D03*
X177419000Y-54229000D03*
X179959000Y-54229000D03*
X182499000Y-54229000D03*
X176403000Y-102489000D03*
X201803000Y-102489000D03*
X204343000Y-102489000D03*
X206883000Y-102489000D03*
X209423000Y-102489000D03*
X211963000Y-102489000D03*
X212090000Y-74549000D03*
D13*
X180340000Y-75406000D03*
X180340000Y-71406000D03*
X175895000Y-75406000D03*
X175895000Y-71406000D03*
X191008000Y-91726000D03*
X191008000Y-95726000D03*
D14*
X188055000Y-99695000D03*
X184055000Y-99695000D03*
D13*
X168656000Y-90138000D03*
X168656000Y-86138000D03*
D15*
X206978000Y-80645000D03*
X202978000Y-80645000D03*
D16*
X184122060Y-82169000D03*
X189003940Y-82169000D03*
D13*
X196088000Y-74962000D03*
X196088000Y-78962000D03*
X196088000Y-67850000D03*
X196088000Y-71850000D03*
D17*
X175514000Y-67006000D03*
X175514000Y-60756000D03*
X199771000Y-76531000D03*
X199771000Y-70281000D03*
D14*
X181261000Y-86233000D03*
X185261000Y-86233000D03*
X181388000Y-63754000D03*
X185388000Y-63754000D03*
X192500000Y-86233000D03*
X188500000Y-86233000D03*
D13*
X168656000Y-97377000D03*
X168656000Y-93377000D03*
D17*
X172212000Y-92025000D03*
X172212000Y-85775000D03*
D18*
X152019000Y-81892140D03*
X152019000Y-84731860D03*
D19*
X163298000Y-74356000D03*
X163298000Y-72456000D03*
X160298000Y-73406000D03*
D20*
X172085000Y-97068640D03*
X172085000Y-102067360D03*
D21*
X156423360Y-102108000D03*
X151424640Y-102108000D03*
D22*
X152908000Y-55880000D03*
D23*
X152908000Y-60880000D03*
X152908000Y-65880000D03*
X152908000Y-70880000D03*
X152908000Y-75880000D03*
D24*
X185388000Y-66548000D03*
X181388000Y-66548000D03*
X159861000Y-84709000D03*
X155861000Y-84709000D03*
D25*
X202758000Y-75668000D03*
X204658000Y-75668000D03*
X203708000Y-72668000D03*
D26*
X183964000Y-70987000D03*
X183964000Y-71787000D03*
X183964000Y-72587000D03*
X183964000Y-73387000D03*
X183964000Y-74187000D03*
X183964000Y-74987000D03*
X183964000Y-75787000D03*
X183964000Y-76587000D03*
D27*
X185414000Y-78037000D03*
X186214000Y-78037000D03*
X187014000Y-78037000D03*
X187814000Y-78037000D03*
X188614000Y-78037000D03*
X189414000Y-78037000D03*
X190214000Y-78037000D03*
X191014000Y-78037000D03*
D26*
X192464000Y-76587000D03*
X192464000Y-75787000D03*
X192464000Y-74987000D03*
X192464000Y-74187000D03*
X192464000Y-73387000D03*
X192464000Y-72587000D03*
X192464000Y-71787000D03*
X192464000Y-70987000D03*
D27*
X191014000Y-69537000D03*
X190214000Y-69537000D03*
X189414000Y-69537000D03*
X188614000Y-69537000D03*
X187814000Y-69537000D03*
X187014000Y-69537000D03*
X186214000Y-69537000D03*
X185414000Y-69537000D03*
D28*
X186770000Y-96708000D03*
X186770000Y-95758000D03*
X186770000Y-94808000D03*
X184070000Y-94808000D03*
X184070000Y-96708000D03*
D29*
X172880000Y-75311000D03*
X172880000Y-74041000D03*
X172880000Y-72771000D03*
X172880000Y-71501000D03*
X167480000Y-71501000D03*
X167480000Y-72771000D03*
X167480000Y-74041000D03*
X167480000Y-75311000D03*
D30*
X164468000Y-93345000D03*
D31*
X155318000Y-93345000D03*
D30*
X164468000Y-90805000D03*
X164468000Y-95885000D03*
D32*
X177292000Y-96993000D03*
X177292000Y-89443000D03*
M02*
