G04 #@! TF.FileFunction,Soldermask,Bot*
%FSLAX46Y46*%
G04 Gerber Fmt 4.6, Leading zero omitted, Abs format (unit mm)*
G04 Created by KiCad (PCBNEW 4.0.6) date Tuesday, 13 February 2018 20:17:47*
%MOMM*%
%LPD*%
G01*
G04 APERTURE LIST*
%ADD10C,0.100000*%
%ADD11O,2.127200X2.127200*%
%ADD12C,3.600000*%
%ADD13C,1.901140*%
%ADD14R,4.000000X2.500000*%
%ADD15O,4.000000X2.500000*%
G04 APERTURE END LIST*
D10*
D11*
X212090000Y-79629000D03*
X214630000Y-79629000D03*
X214630000Y-77089000D03*
X212090000Y-77089000D03*
X214630000Y-74549000D03*
X199263000Y-102489000D03*
X194183000Y-102489000D03*
X191643000Y-102489000D03*
X189103000Y-102489000D03*
X186563000Y-102489000D03*
X184023000Y-102489000D03*
X181483000Y-102489000D03*
X178943000Y-102489000D03*
X211963000Y-54229000D03*
X209423000Y-54229000D03*
X206883000Y-54229000D03*
X204343000Y-54229000D03*
X201803000Y-54229000D03*
X199263000Y-54229000D03*
X196723000Y-54229000D03*
X194183000Y-54229000D03*
X174879000Y-54229000D03*
X190119000Y-54229000D03*
X187579000Y-54229000D03*
X185039000Y-54229000D03*
D12*
X214503000Y-97409000D03*
X214503000Y-69469000D03*
X163703000Y-54229000D03*
X162433000Y-102489000D03*
D11*
X167259000Y-54229000D03*
X169799000Y-54229000D03*
X172339000Y-54229000D03*
X177419000Y-54229000D03*
X179959000Y-54229000D03*
X182499000Y-54229000D03*
X176403000Y-102489000D03*
X201803000Y-102489000D03*
X204343000Y-102489000D03*
X206883000Y-102489000D03*
X209423000Y-102489000D03*
X211963000Y-102489000D03*
X212090000Y-74549000D03*
D13*
X184122060Y-82169000D03*
X189003940Y-82169000D03*
D14*
X152908000Y-55880000D03*
D15*
X152908000Y-60880000D03*
X152908000Y-65880000D03*
X152908000Y-70880000D03*
X152908000Y-75880000D03*
M02*
