G04 #@! TF.FileFunction,Legend,Top*
%FSLAX46Y46*%
G04 Gerber Fmt 4.6, Leading zero omitted, Abs format (unit mm)*
G04 Created by KiCad (PCBNEW 4.0.6) date Tuesday, 13 February 2018 20:17:47*
%MOMM*%
%LPD*%
G01*
G04 APERTURE LIST*
%ADD10C,0.100000*%
%ADD11C,0.300000*%
%ADD12C,0.150000*%
%ADD13C,0.120000*%
G04 APERTURE END LIST*
D10*
D11*
X195096429Y-98468571D02*
X195096429Y-96968571D01*
X195739286Y-98468571D02*
X195739286Y-97682857D01*
X195667857Y-97540000D01*
X195525000Y-97468571D01*
X195310715Y-97468571D01*
X195167857Y-97540000D01*
X195096429Y-97611429D01*
X196525000Y-98468571D02*
X196810715Y-98468571D01*
X196953572Y-98397143D01*
X197025000Y-98325714D01*
X197167858Y-98111429D01*
X197239286Y-97825714D01*
X197239286Y-97254286D01*
X197167858Y-97111429D01*
X197096429Y-97040000D01*
X196953572Y-96968571D01*
X196667858Y-96968571D01*
X196525000Y-97040000D01*
X196453572Y-97111429D01*
X196382143Y-97254286D01*
X196382143Y-97611429D01*
X196453572Y-97754286D01*
X196525000Y-97825714D01*
X196667858Y-97897143D01*
X196953572Y-97897143D01*
X197096429Y-97825714D01*
X197167858Y-97754286D01*
X197239286Y-97611429D01*
X198525000Y-97468571D02*
X198525000Y-98468571D01*
X197882143Y-97468571D02*
X197882143Y-98254286D01*
X197953571Y-98397143D01*
X198096429Y-98468571D01*
X198310714Y-98468571D01*
X198453571Y-98397143D01*
X198525000Y-98325714D01*
X199239286Y-97468571D02*
X199239286Y-98468571D01*
X199239286Y-97611429D02*
X199310714Y-97540000D01*
X199453572Y-97468571D01*
X199667857Y-97468571D01*
X199810714Y-97540000D01*
X199882143Y-97682857D01*
X199882143Y-98468571D01*
X200810715Y-98468571D02*
X200667857Y-98397143D01*
X200596429Y-98325714D01*
X200525000Y-98182857D01*
X200525000Y-97754286D01*
X200596429Y-97611429D01*
X200667857Y-97540000D01*
X200810715Y-97468571D01*
X201025000Y-97468571D01*
X201167857Y-97540000D01*
X201239286Y-97611429D01*
X201310715Y-97754286D01*
X201310715Y-98182857D01*
X201239286Y-98325714D01*
X201167857Y-98397143D01*
X201025000Y-98468571D01*
X200810715Y-98468571D01*
X202953572Y-97468571D02*
X203310715Y-98468571D01*
X203667857Y-97468571D01*
X205025000Y-98468571D02*
X204167857Y-98468571D01*
X204596429Y-98468571D02*
X204596429Y-96968571D01*
X204453572Y-97182857D01*
X204310714Y-97325714D01*
X204167857Y-97397143D01*
X161035857Y-57777000D02*
X160893000Y-57705571D01*
X160678714Y-57705571D01*
X160464429Y-57777000D01*
X160321571Y-57919857D01*
X160250143Y-58062714D01*
X160178714Y-58348429D01*
X160178714Y-58562714D01*
X160250143Y-58848429D01*
X160321571Y-58991286D01*
X160464429Y-59134143D01*
X160678714Y-59205571D01*
X160821571Y-59205571D01*
X161035857Y-59134143D01*
X161107286Y-59062714D01*
X161107286Y-58562714D01*
X160821571Y-58562714D01*
X161750143Y-59205571D02*
X161750143Y-57705571D01*
X162607286Y-59205571D01*
X162607286Y-57705571D01*
X163321572Y-59205571D02*
X163321572Y-57705571D01*
X163678715Y-57705571D01*
X163893000Y-57777000D01*
X164035858Y-57919857D01*
X164107286Y-58062714D01*
X164178715Y-58348429D01*
X164178715Y-58562714D01*
X164107286Y-58848429D01*
X164035858Y-58991286D01*
X163893000Y-59134143D01*
X163678715Y-59205571D01*
X163321572Y-59205571D01*
X160250143Y-61755571D02*
X160250143Y-60255571D01*
X160821571Y-60255571D01*
X160964429Y-60327000D01*
X161035857Y-60398429D01*
X161107286Y-60541286D01*
X161107286Y-60755571D01*
X161035857Y-60898429D01*
X160964429Y-60969857D01*
X160821571Y-61041286D01*
X160250143Y-61041286D01*
X161607286Y-60255571D02*
X161964429Y-61755571D01*
X162250143Y-60684143D01*
X162535857Y-61755571D01*
X162893000Y-60255571D01*
X164321572Y-61755571D02*
X163821572Y-61041286D01*
X163464429Y-61755571D02*
X163464429Y-60255571D01*
X164035857Y-60255571D01*
X164178715Y-60327000D01*
X164250143Y-60398429D01*
X164321572Y-60541286D01*
X164321572Y-60755571D01*
X164250143Y-60898429D01*
X164178715Y-60969857D01*
X164035857Y-61041286D01*
X163464429Y-61041286D01*
X161035857Y-62877000D02*
X160893000Y-62805571D01*
X160678714Y-62805571D01*
X160464429Y-62877000D01*
X160321571Y-63019857D01*
X160250143Y-63162714D01*
X160178714Y-63448429D01*
X160178714Y-63662714D01*
X160250143Y-63948429D01*
X160321571Y-64091286D01*
X160464429Y-64234143D01*
X160678714Y-64305571D01*
X160821571Y-64305571D01*
X161035857Y-64234143D01*
X161107286Y-64162714D01*
X161107286Y-63662714D01*
X160821571Y-63662714D01*
X161750143Y-64305571D02*
X161750143Y-62805571D01*
X162607286Y-64305571D01*
X162607286Y-62805571D01*
X163321572Y-64305571D02*
X163321572Y-62805571D01*
X163678715Y-62805571D01*
X163893000Y-62877000D01*
X164035858Y-63019857D01*
X164107286Y-63162714D01*
X164178715Y-63448429D01*
X164178715Y-63662714D01*
X164107286Y-63948429D01*
X164035858Y-64091286D01*
X163893000Y-64234143D01*
X163678715Y-64305571D01*
X163321572Y-64305571D01*
X161107286Y-66712714D02*
X161035857Y-66784143D01*
X160821571Y-66855571D01*
X160678714Y-66855571D01*
X160464429Y-66784143D01*
X160321571Y-66641286D01*
X160250143Y-66498429D01*
X160178714Y-66212714D01*
X160178714Y-65998429D01*
X160250143Y-65712714D01*
X160321571Y-65569857D01*
X160464429Y-65427000D01*
X160678714Y-65355571D01*
X160821571Y-65355571D01*
X161035857Y-65427000D01*
X161107286Y-65498429D01*
X161678714Y-66427000D02*
X162393000Y-66427000D01*
X161535857Y-66855571D02*
X162035857Y-65355571D01*
X162535857Y-66855571D01*
X163035857Y-66855571D02*
X163035857Y-65355571D01*
X163893000Y-66855571D01*
X163893000Y-65355571D01*
X166464429Y-66855571D02*
X165750143Y-66855571D01*
X165750143Y-65355571D01*
X161107286Y-69262714D02*
X161035857Y-69334143D01*
X160821571Y-69405571D01*
X160678714Y-69405571D01*
X160464429Y-69334143D01*
X160321571Y-69191286D01*
X160250143Y-69048429D01*
X160178714Y-68762714D01*
X160178714Y-68548429D01*
X160250143Y-68262714D01*
X160321571Y-68119857D01*
X160464429Y-67977000D01*
X160678714Y-67905571D01*
X160821571Y-67905571D01*
X161035857Y-67977000D01*
X161107286Y-68048429D01*
X161678714Y-68977000D02*
X162393000Y-68977000D01*
X161535857Y-69405571D02*
X162035857Y-67905571D01*
X162535857Y-69405571D01*
X163035857Y-69405571D02*
X163035857Y-67905571D01*
X163893000Y-69405571D01*
X163893000Y-67905571D01*
X165750143Y-69405571D02*
X165750143Y-67905571D01*
X165750143Y-68619857D02*
X166607286Y-68619857D01*
X166607286Y-69405571D02*
X166607286Y-67905571D01*
D12*
X148463000Y-51689000D02*
X148463000Y-105029000D01*
X214503000Y-64389000D02*
X214503000Y-53213000D01*
X217043000Y-66929000D02*
X214503000Y-64389000D01*
X217043000Y-101219000D02*
X217043000Y-66929000D01*
X214503000Y-103759000D02*
X217043000Y-101219000D01*
X214503000Y-105029000D02*
X214503000Y-103759000D01*
X212979000Y-51689000D02*
X214503000Y-53213000D01*
X148463000Y-105029000D02*
X214503000Y-105029000D01*
X148463000Y-51689000D02*
X212979000Y-51689000D01*
X179315000Y-72406000D02*
X179315000Y-74406000D01*
X181365000Y-74406000D02*
X181365000Y-72406000D01*
X174870000Y-72406000D02*
X174870000Y-74406000D01*
X176920000Y-74406000D02*
X176920000Y-72406000D01*
X192033000Y-94726000D02*
X192033000Y-92726000D01*
X189983000Y-92726000D02*
X189983000Y-94726000D01*
X185055000Y-100720000D02*
X187055000Y-100720000D01*
X187055000Y-98670000D02*
X185055000Y-98670000D01*
X167631000Y-87138000D02*
X167631000Y-89138000D01*
X169681000Y-89138000D02*
X169681000Y-87138000D01*
X203978000Y-79170000D02*
X205978000Y-79170000D01*
X205978000Y-82120000D02*
X203978000Y-82120000D01*
X191262000Y-81168240D02*
X191462660Y-81569560D01*
X191462660Y-81569560D02*
X191564260Y-82169000D01*
X191564260Y-82169000D02*
X191462660Y-82669380D01*
X191462660Y-82669380D02*
X191063880Y-83367880D01*
X191063880Y-83367880D02*
X190461900Y-83769200D01*
X190461900Y-83769200D02*
X189862460Y-83969860D01*
X189862460Y-83969860D02*
X183263540Y-83969860D01*
X183263540Y-83969860D02*
X182562500Y-83769200D01*
X182562500Y-83769200D02*
X182163720Y-83469480D01*
X182163720Y-83469480D02*
X181762400Y-82969100D01*
X181762400Y-82969100D02*
X181561740Y-82369660D01*
X181561740Y-82369660D02*
X181561740Y-81869280D01*
X181561740Y-81869280D02*
X181762400Y-81368900D01*
X181762400Y-81368900D02*
X182262780Y-80769460D01*
X182262780Y-80769460D02*
X182763160Y-80469740D01*
X182763160Y-80469740D02*
X183263540Y-80368140D01*
X183362600Y-80368140D02*
X189964060Y-80368140D01*
X189964060Y-80368140D02*
X190362840Y-80469740D01*
X190362840Y-80469740D02*
X190863220Y-80769460D01*
X190863220Y-80769460D02*
X191363600Y-81269840D01*
X183372760Y-79839820D02*
X182913020Y-79888080D01*
X182913020Y-79888080D02*
X182514240Y-79999840D01*
X182514240Y-79999840D02*
X182082440Y-80218280D01*
X182082440Y-80218280D02*
X181792880Y-80449420D01*
X181792880Y-80449420D02*
X181462680Y-80799940D01*
X181462680Y-80799940D02*
X181173120Y-81338420D01*
X181173120Y-81338420D02*
X181043580Y-81937860D01*
X181043580Y-81937860D02*
X181043580Y-82448400D01*
X181043580Y-82448400D02*
X181213760Y-83149440D01*
X181213760Y-83149440D02*
X181612540Y-83738720D01*
X181612540Y-83738720D02*
X182072280Y-84109560D01*
X182072280Y-84109560D02*
X182493920Y-84317840D01*
X182493920Y-84317840D02*
X182943500Y-84477860D01*
X182943500Y-84477860D02*
X183382920Y-84508340D01*
X190723520Y-84289900D02*
X191101980Y-84068920D01*
X191101980Y-84068920D02*
X191422020Y-83789520D01*
X191422020Y-83789520D02*
X191673480Y-83459320D01*
X191673480Y-83459320D02*
X191973200Y-82908140D01*
X191973200Y-82908140D02*
X192082420Y-82438240D01*
X192082420Y-82438240D02*
X192102740Y-81978500D01*
X192102740Y-81978500D02*
X192013840Y-81518760D01*
X192013840Y-81518760D02*
X191823340Y-81069180D01*
X191823340Y-81069180D02*
X191462660Y-80599280D01*
X191462660Y-80599280D02*
X191112140Y-80279240D01*
X191112140Y-80279240D02*
X190723520Y-80048100D01*
X190723520Y-80048100D02*
X190294260Y-79908400D01*
X190294260Y-79908400D02*
X189852300Y-79839820D01*
X183362600Y-84498180D02*
X189814200Y-84498180D01*
X189814200Y-84498180D02*
X190233300Y-84460080D01*
X190233300Y-84460080D02*
X190723520Y-84289900D01*
X183362600Y-79839820D02*
X189814200Y-79839820D01*
X197113000Y-77962000D02*
X197113000Y-75962000D01*
X195063000Y-75962000D02*
X195063000Y-77962000D01*
X197113000Y-70850000D02*
X197113000Y-68850000D01*
X195063000Y-68850000D02*
X195063000Y-70850000D01*
D13*
X173664000Y-69181000D02*
X173664000Y-60881000D01*
X177364000Y-69181000D02*
X177364000Y-60881000D01*
X173664000Y-69181000D02*
X177364000Y-69181000D01*
X197921000Y-78706000D02*
X197921000Y-70406000D01*
X201621000Y-78706000D02*
X201621000Y-70406000D01*
X197921000Y-78706000D02*
X201621000Y-78706000D01*
D12*
X184261000Y-85208000D02*
X182261000Y-85208000D01*
X182261000Y-87258000D02*
X184261000Y-87258000D01*
X184388000Y-62729000D02*
X182388000Y-62729000D01*
X182388000Y-64779000D02*
X184388000Y-64779000D01*
X189500000Y-87258000D02*
X191500000Y-87258000D01*
X191500000Y-85208000D02*
X189500000Y-85208000D01*
X167631000Y-94377000D02*
X167631000Y-96377000D01*
X169681000Y-96377000D02*
X169681000Y-94377000D01*
D13*
X170362000Y-94200000D02*
X170362000Y-85900000D01*
X174062000Y-94200000D02*
X174062000Y-85900000D01*
X170362000Y-94200000D02*
X174062000Y-94200000D01*
D12*
X153069000Y-85462000D02*
X153069000Y-81862000D01*
X150969000Y-85462000D02*
X150969000Y-81862000D01*
X151719000Y-83412000D02*
X152319000Y-83412000D01*
X152319000Y-83412000D02*
X152019000Y-83712000D01*
X152019000Y-83712000D02*
X151819000Y-83512000D01*
X151819000Y-83512000D02*
X152069000Y-83512000D01*
X152069000Y-83512000D02*
X152019000Y-83562000D01*
X151519000Y-83812000D02*
X152519000Y-83812000D01*
X152019000Y-83312000D02*
X152019000Y-82812000D01*
X152019000Y-83812000D02*
X151519000Y-83312000D01*
X151519000Y-83312000D02*
X152519000Y-83312000D01*
X152519000Y-83312000D02*
X152019000Y-83812000D01*
D13*
X161038000Y-71826000D02*
X161038000Y-72756000D01*
X161038000Y-74986000D02*
X161038000Y-74056000D01*
X161038000Y-74986000D02*
X164198000Y-74986000D01*
X161038000Y-71826000D02*
X162498000Y-71826000D01*
D12*
X172085000Y-99318000D02*
X172535000Y-99868000D01*
X172535000Y-99868000D02*
X171635000Y-99868000D01*
X171635000Y-99868000D02*
X172085000Y-99318000D01*
X172635000Y-99318000D02*
X171535000Y-99318000D01*
X170334940Y-97768860D02*
X170685460Y-97768860D01*
X173835060Y-97768860D02*
X173484540Y-97768860D01*
X170334940Y-101818440D02*
X170685460Y-101818440D01*
X170334940Y-97317560D02*
X170685460Y-97317560D01*
X173835060Y-97317560D02*
X173484540Y-97317560D01*
X173835060Y-101818440D02*
X173484540Y-101818440D01*
X170334940Y-97317560D02*
X170334940Y-101818440D01*
X173835060Y-97317560D02*
X173835060Y-101818440D01*
X154174000Y-102108000D02*
X153624000Y-102558000D01*
X153624000Y-102558000D02*
X153624000Y-101658000D01*
X153624000Y-101658000D02*
X154174000Y-102108000D01*
X154174000Y-102658000D02*
X154174000Y-101558000D01*
X155723140Y-100357940D02*
X155723140Y-100708460D01*
X155723140Y-103858060D02*
X155723140Y-103507540D01*
X151673560Y-100357940D02*
X151673560Y-100708460D01*
X156174440Y-100357940D02*
X156174440Y-100708460D01*
X156174440Y-103858060D02*
X156174440Y-103507540D01*
X151673560Y-103858060D02*
X151673560Y-103507540D01*
X156174440Y-100357940D02*
X151673560Y-100357940D01*
X156174440Y-103858060D02*
X151673560Y-103858060D01*
X150692179Y-57866841D02*
G75*
G02X150708000Y-53880000I1665821J1986841D01*
G01*
X150692179Y-62866841D02*
G75*
G02X150708000Y-58880000I1665821J1986841D01*
G01*
X150692179Y-67866841D02*
G75*
G02X150708000Y-63880000I1665821J1986841D01*
G01*
X150692179Y-72866841D02*
G75*
G02X150708000Y-68880000I1665821J1986841D01*
G01*
X150692179Y-77866841D02*
G75*
G02X150708000Y-73880000I1665821J1986841D01*
G01*
X157788000Y-52300000D02*
X149028000Y-52300000D01*
X149028000Y-52300000D02*
X149028000Y-79460000D01*
X149028000Y-79460000D02*
X157788000Y-79460000D01*
X157788000Y-79460000D02*
X157788000Y-52300000D01*
X157008000Y-52300000D02*
X157008000Y-54800000D01*
X157008000Y-79460000D02*
X157008000Y-76960000D01*
X157008000Y-56880000D02*
X157008000Y-59880000D01*
X157008000Y-61880000D02*
X157008000Y-64880000D01*
X157008000Y-66880000D02*
X157008000Y-69880000D01*
X157008000Y-71880000D02*
X157008000Y-74880000D01*
X156008000Y-54880000D02*
X157788000Y-54880000D01*
X157788000Y-54880000D02*
X157788000Y-56880000D01*
X157788000Y-56880000D02*
X156008000Y-56880000D01*
X156008000Y-56880000D02*
X156008000Y-54880000D01*
X156008000Y-59880000D02*
X157788000Y-59880000D01*
X157788000Y-59880000D02*
X157788000Y-61880000D01*
X157788000Y-61880000D02*
X156008000Y-61880000D01*
X156008000Y-61880000D02*
X156008000Y-59880000D01*
X156008000Y-64880000D02*
X157788000Y-64880000D01*
X157788000Y-64880000D02*
X157788000Y-66880000D01*
X157788000Y-66880000D02*
X156008000Y-66880000D01*
X156008000Y-66880000D02*
X156008000Y-64880000D01*
X156008000Y-69880000D02*
X157788000Y-69880000D01*
X157788000Y-69880000D02*
X157788000Y-71880000D01*
X157788000Y-71880000D02*
X156008000Y-71880000D01*
X156008000Y-71880000D02*
X156008000Y-69880000D01*
X156008000Y-74880000D02*
X157788000Y-74880000D01*
X157788000Y-74880000D02*
X157788000Y-76880000D01*
X157788000Y-76880000D02*
X156008000Y-76880000D01*
X156008000Y-76880000D02*
X156008000Y-74880000D01*
X150708000Y-57880000D02*
X150708000Y-58880000D01*
X150708000Y-62880000D02*
X150708000Y-63880000D01*
X150708000Y-67880000D02*
X150708000Y-68880000D01*
X150708000Y-72880000D02*
X150708000Y-73880000D01*
X150708000Y-53880000D02*
X150708000Y-53180000D01*
X150708000Y-53180000D02*
X156008000Y-53180000D01*
X156008000Y-53180000D02*
X156008000Y-78580000D01*
X156008000Y-78580000D02*
X150708000Y-78580000D01*
X150708000Y-78580000D02*
X150708000Y-77880000D01*
X158208000Y-55880000D02*
X158808000Y-56180000D01*
X158808000Y-56180000D02*
X158808000Y-55580000D01*
X158808000Y-55580000D02*
X158208000Y-55880000D01*
X182388000Y-65473000D02*
X184388000Y-65473000D01*
X184388000Y-67623000D02*
X182388000Y-67623000D01*
X156861000Y-83634000D02*
X158861000Y-83634000D01*
X158861000Y-85784000D02*
X156861000Y-85784000D01*
D13*
X205288000Y-73408000D02*
X204358000Y-73408000D01*
X202128000Y-73408000D02*
X203058000Y-73408000D01*
X202128000Y-73408000D02*
X202128000Y-76568000D01*
X205288000Y-73408000D02*
X205288000Y-74868000D01*
D12*
X184589000Y-70162000D02*
X184589000Y-70387000D01*
X191839000Y-70162000D02*
X191839000Y-70487000D01*
X191839000Y-77412000D02*
X191839000Y-77087000D01*
X184589000Y-77412000D02*
X184589000Y-77087000D01*
X184589000Y-70162000D02*
X184914000Y-70162000D01*
X184589000Y-77412000D02*
X184914000Y-77412000D01*
X191839000Y-77412000D02*
X191514000Y-77412000D01*
X191839000Y-70162000D02*
X191514000Y-70162000D01*
X184589000Y-70387000D02*
X183164000Y-70387000D01*
D13*
X186320000Y-94148000D02*
X184520000Y-94148000D01*
X184520000Y-97368000D02*
X186970000Y-97368000D01*
D12*
X172255000Y-75981000D02*
X172255000Y-75931000D01*
X168105000Y-75981000D02*
X168105000Y-75836000D01*
X168105000Y-70831000D02*
X168105000Y-70976000D01*
X172255000Y-70831000D02*
X172255000Y-70976000D01*
X172255000Y-75981000D02*
X168105000Y-75981000D01*
X172255000Y-70831000D02*
X168105000Y-70831000D01*
X172255000Y-75931000D02*
X173655000Y-75931000D01*
X161968000Y-88345000D02*
X161968000Y-89595000D01*
X161968000Y-88345000D02*
X160468000Y-88345000D01*
X161968000Y-98345000D02*
X160468000Y-98345000D01*
X161968000Y-98345000D02*
X161968000Y-97095000D01*
D13*
X174892000Y-99168000D02*
X174892000Y-89568000D01*
X179692000Y-99168000D02*
X179692000Y-89568000D01*
X174892000Y-99168000D02*
X179692000Y-99168000D01*
D12*
X155384714Y-97194667D02*
X155860905Y-97194667D01*
X155289476Y-97480381D02*
X155622809Y-96480381D01*
X155956143Y-97480381D01*
X156860905Y-97480381D02*
X156527571Y-97004190D01*
X156289476Y-97480381D02*
X156289476Y-96480381D01*
X156670429Y-96480381D01*
X156765667Y-96528000D01*
X156813286Y-96575619D01*
X156860905Y-96670857D01*
X156860905Y-96813714D01*
X156813286Y-96908952D01*
X156765667Y-96956571D01*
X156670429Y-97004190D01*
X156289476Y-97004190D01*
X157289476Y-97480381D02*
X157289476Y-96480381D01*
X157527571Y-96480381D01*
X157670429Y-96528000D01*
X157765667Y-96623238D01*
X157813286Y-96718476D01*
X157860905Y-96908952D01*
X157860905Y-97051810D01*
X157813286Y-97242286D01*
X157765667Y-97337524D01*
X157670429Y-97432762D01*
X157527571Y-97480381D01*
X157289476Y-97480381D01*
X158813286Y-97480381D02*
X158241857Y-97480381D01*
X158527571Y-97480381D02*
X158527571Y-96480381D01*
X158432333Y-96623238D01*
X158337095Y-96718476D01*
X158241857Y-96766095D01*
X210947000Y-73382143D02*
X210994619Y-73429762D01*
X210947000Y-73477381D01*
X210899381Y-73429762D01*
X210947000Y-73382143D01*
X210947000Y-73477381D01*
X178397143Y-73572666D02*
X178444762Y-73620285D01*
X178492381Y-73763142D01*
X178492381Y-73858380D01*
X178444762Y-74001238D01*
X178349524Y-74096476D01*
X178254286Y-74144095D01*
X178063810Y-74191714D01*
X177920952Y-74191714D01*
X177730476Y-74144095D01*
X177635238Y-74096476D01*
X177540000Y-74001238D01*
X177492381Y-73858380D01*
X177492381Y-73763142D01*
X177540000Y-73620285D01*
X177587619Y-73572666D01*
X177492381Y-73239333D02*
X177492381Y-72620285D01*
X177873333Y-72953619D01*
X177873333Y-72810761D01*
X177920952Y-72715523D01*
X177968571Y-72667904D01*
X178063810Y-72620285D01*
X178301905Y-72620285D01*
X178397143Y-72667904D01*
X178444762Y-72715523D01*
X178492381Y-72810761D01*
X178492381Y-73096476D01*
X178444762Y-73191714D01*
X178397143Y-73239333D01*
X174601143Y-78017666D02*
X174648762Y-78065285D01*
X174696381Y-78208142D01*
X174696381Y-78303380D01*
X174648762Y-78446238D01*
X174553524Y-78541476D01*
X174458286Y-78589095D01*
X174267810Y-78636714D01*
X174124952Y-78636714D01*
X173934476Y-78589095D01*
X173839238Y-78541476D01*
X173744000Y-78446238D01*
X173696381Y-78303380D01*
X173696381Y-78208142D01*
X173744000Y-78065285D01*
X173791619Y-78017666D01*
X174696381Y-77541476D02*
X174696381Y-77351000D01*
X174648762Y-77255761D01*
X174601143Y-77208142D01*
X174458286Y-77112904D01*
X174267810Y-77065285D01*
X173886857Y-77065285D01*
X173791619Y-77112904D01*
X173744000Y-77160523D01*
X173696381Y-77255761D01*
X173696381Y-77446238D01*
X173744000Y-77541476D01*
X173791619Y-77589095D01*
X173886857Y-77636714D01*
X174124952Y-77636714D01*
X174220190Y-77589095D01*
X174267810Y-77541476D01*
X174315429Y-77446238D01*
X174315429Y-77255761D01*
X174267810Y-77160523D01*
X174220190Y-77112904D01*
X174124952Y-77065285D01*
X193665143Y-94368857D02*
X193712762Y-94416476D01*
X193760381Y-94559333D01*
X193760381Y-94654571D01*
X193712762Y-94797429D01*
X193617524Y-94892667D01*
X193522286Y-94940286D01*
X193331810Y-94987905D01*
X193188952Y-94987905D01*
X192998476Y-94940286D01*
X192903238Y-94892667D01*
X192808000Y-94797429D01*
X192760381Y-94654571D01*
X192760381Y-94559333D01*
X192808000Y-94416476D01*
X192855619Y-94368857D01*
X193760381Y-93416476D02*
X193760381Y-93987905D01*
X193760381Y-93702191D02*
X192760381Y-93702191D01*
X192903238Y-93797429D01*
X192998476Y-93892667D01*
X193046095Y-93987905D01*
X192760381Y-92797429D02*
X192760381Y-92702190D01*
X192808000Y-92606952D01*
X192855619Y-92559333D01*
X192950857Y-92511714D01*
X193141333Y-92464095D01*
X193379429Y-92464095D01*
X193569905Y-92511714D01*
X193665143Y-92559333D01*
X193712762Y-92606952D01*
X193760381Y-92702190D01*
X193760381Y-92797429D01*
X193712762Y-92892667D01*
X193665143Y-92940286D01*
X193569905Y-92987905D01*
X193379429Y-93035524D01*
X193141333Y-93035524D01*
X192950857Y-92987905D01*
X192855619Y-92940286D01*
X192808000Y-92892667D01*
X192760381Y-92797429D01*
X180459143Y-100560143D02*
X180411524Y-100607762D01*
X180268667Y-100655381D01*
X180173429Y-100655381D01*
X180030571Y-100607762D01*
X179935333Y-100512524D01*
X179887714Y-100417286D01*
X179840095Y-100226810D01*
X179840095Y-100083952D01*
X179887714Y-99893476D01*
X179935333Y-99798238D01*
X180030571Y-99703000D01*
X180173429Y-99655381D01*
X180268667Y-99655381D01*
X180411524Y-99703000D01*
X180459143Y-99750619D01*
X181411524Y-100655381D02*
X180840095Y-100655381D01*
X181125809Y-100655381D02*
X181125809Y-99655381D01*
X181030571Y-99798238D01*
X180935333Y-99893476D01*
X180840095Y-99941095D01*
X182363905Y-100655381D02*
X181792476Y-100655381D01*
X182078190Y-100655381D02*
X182078190Y-99655381D01*
X181982952Y-99798238D01*
X181887714Y-99893476D01*
X181792476Y-99941095D01*
X168886143Y-83700857D02*
X168933762Y-83748476D01*
X168981381Y-83891333D01*
X168981381Y-83986571D01*
X168933762Y-84129429D01*
X168838524Y-84224667D01*
X168743286Y-84272286D01*
X168552810Y-84319905D01*
X168409952Y-84319905D01*
X168219476Y-84272286D01*
X168124238Y-84224667D01*
X168029000Y-84129429D01*
X167981381Y-83986571D01*
X167981381Y-83891333D01*
X168029000Y-83748476D01*
X168076619Y-83700857D01*
X168981381Y-82748476D02*
X168981381Y-83319905D01*
X168981381Y-83034191D02*
X167981381Y-83034191D01*
X168124238Y-83129429D01*
X168219476Y-83224667D01*
X168267095Y-83319905D01*
X167981381Y-81843714D02*
X167981381Y-82319905D01*
X168457571Y-82367524D01*
X168409952Y-82319905D01*
X168362333Y-82224667D01*
X168362333Y-81986571D01*
X168409952Y-81891333D01*
X168457571Y-81843714D01*
X168552810Y-81796095D01*
X168790905Y-81796095D01*
X168886143Y-81843714D01*
X168933762Y-81891333D01*
X168981381Y-81986571D01*
X168981381Y-82224667D01*
X168933762Y-82319905D01*
X168886143Y-82367524D01*
X204811334Y-83797381D02*
X204335143Y-83797381D01*
X204335143Y-82797381D01*
X205668477Y-83797381D02*
X205097048Y-83797381D01*
X205382762Y-83797381D02*
X205382762Y-82797381D01*
X205287524Y-82940238D01*
X205192286Y-83035476D01*
X205097048Y-83083095D01*
X179228809Y-83288190D02*
X179228809Y-83764381D01*
X178895476Y-82764381D02*
X179228809Y-83288190D01*
X179562143Y-82764381D01*
X180419286Y-83764381D02*
X179847857Y-83764381D01*
X180133571Y-83764381D02*
X180133571Y-82764381D01*
X180038333Y-82907238D01*
X179943095Y-83002476D01*
X179847857Y-83050095D01*
X196445143Y-81446666D02*
X196492762Y-81494285D01*
X196540381Y-81637142D01*
X196540381Y-81732380D01*
X196492762Y-81875238D01*
X196397524Y-81970476D01*
X196302286Y-82018095D01*
X196111810Y-82065714D01*
X195968952Y-82065714D01*
X195778476Y-82018095D01*
X195683238Y-81970476D01*
X195588000Y-81875238D01*
X195540381Y-81732380D01*
X195540381Y-81637142D01*
X195588000Y-81494285D01*
X195635619Y-81446666D01*
X196540381Y-80494285D02*
X196540381Y-81065714D01*
X196540381Y-80780000D02*
X195540381Y-80780000D01*
X195683238Y-80875238D01*
X195778476Y-80970476D01*
X195826095Y-81065714D01*
X196445143Y-65571666D02*
X196492762Y-65619285D01*
X196540381Y-65762142D01*
X196540381Y-65857380D01*
X196492762Y-66000238D01*
X196397524Y-66095476D01*
X196302286Y-66143095D01*
X196111810Y-66190714D01*
X195968952Y-66190714D01*
X195778476Y-66143095D01*
X195683238Y-66095476D01*
X195588000Y-66000238D01*
X195540381Y-65857380D01*
X195540381Y-65762142D01*
X195588000Y-65619285D01*
X195635619Y-65571666D01*
X195635619Y-65190714D02*
X195588000Y-65143095D01*
X195540381Y-65047857D01*
X195540381Y-64809761D01*
X195588000Y-64714523D01*
X195635619Y-64666904D01*
X195730857Y-64619285D01*
X195826095Y-64619285D01*
X195968952Y-64666904D01*
X196540381Y-65238333D01*
X196540381Y-64619285D01*
X172521143Y-64047666D02*
X172568762Y-64095285D01*
X172616381Y-64238142D01*
X172616381Y-64333380D01*
X172568762Y-64476238D01*
X172473524Y-64571476D01*
X172378286Y-64619095D01*
X172187810Y-64666714D01*
X172044952Y-64666714D01*
X171854476Y-64619095D01*
X171759238Y-64571476D01*
X171664000Y-64476238D01*
X171616381Y-64333380D01*
X171616381Y-64238142D01*
X171664000Y-64095285D01*
X171711619Y-64047666D01*
X171949714Y-63190523D02*
X172616381Y-63190523D01*
X171568762Y-63428619D02*
X172283048Y-63666714D01*
X172283048Y-63047666D01*
X202922143Y-69762666D02*
X202969762Y-69810285D01*
X203017381Y-69953142D01*
X203017381Y-70048380D01*
X202969762Y-70191238D01*
X202874524Y-70286476D01*
X202779286Y-70334095D01*
X202588810Y-70381714D01*
X202445952Y-70381714D01*
X202255476Y-70334095D01*
X202160238Y-70286476D01*
X202065000Y-70191238D01*
X202017381Y-70048380D01*
X202017381Y-69953142D01*
X202065000Y-69810285D01*
X202112619Y-69762666D01*
X202017381Y-68857904D02*
X202017381Y-69334095D01*
X202493571Y-69381714D01*
X202445952Y-69334095D01*
X202398333Y-69238857D01*
X202398333Y-69000761D01*
X202445952Y-68905523D01*
X202493571Y-68857904D01*
X202588810Y-68810285D01*
X202826905Y-68810285D01*
X202922143Y-68857904D01*
X202969762Y-68905523D01*
X203017381Y-69000761D01*
X203017381Y-69238857D01*
X202969762Y-69334095D01*
X202922143Y-69381714D01*
X183094334Y-88749143D02*
X183046715Y-88796762D01*
X182903858Y-88844381D01*
X182808620Y-88844381D01*
X182665762Y-88796762D01*
X182570524Y-88701524D01*
X182522905Y-88606286D01*
X182475286Y-88415810D01*
X182475286Y-88272952D01*
X182522905Y-88082476D01*
X182570524Y-87987238D01*
X182665762Y-87892000D01*
X182808620Y-87844381D01*
X182903858Y-87844381D01*
X183046715Y-87892000D01*
X183094334Y-87939619D01*
X183951477Y-87844381D02*
X183761000Y-87844381D01*
X183665762Y-87892000D01*
X183618143Y-87939619D01*
X183522905Y-88082476D01*
X183475286Y-88272952D01*
X183475286Y-88653905D01*
X183522905Y-88749143D01*
X183570524Y-88796762D01*
X183665762Y-88844381D01*
X183856239Y-88844381D01*
X183951477Y-88796762D01*
X183999096Y-88749143D01*
X184046715Y-88653905D01*
X184046715Y-88415810D01*
X183999096Y-88320571D01*
X183951477Y-88272952D01*
X183856239Y-88225333D01*
X183665762Y-88225333D01*
X183570524Y-88272952D01*
X183522905Y-88320571D01*
X183475286Y-88415810D01*
X178776334Y-64238143D02*
X178728715Y-64285762D01*
X178585858Y-64333381D01*
X178490620Y-64333381D01*
X178347762Y-64285762D01*
X178252524Y-64190524D01*
X178204905Y-64095286D01*
X178157286Y-63904810D01*
X178157286Y-63761952D01*
X178204905Y-63571476D01*
X178252524Y-63476238D01*
X178347762Y-63381000D01*
X178490620Y-63333381D01*
X178585858Y-63333381D01*
X178728715Y-63381000D01*
X178776334Y-63428619D01*
X179109667Y-63333381D02*
X179776334Y-63333381D01*
X179347762Y-64333381D01*
X190333334Y-88890143D02*
X190285715Y-88937762D01*
X190142858Y-88985381D01*
X190047620Y-88985381D01*
X189904762Y-88937762D01*
X189809524Y-88842524D01*
X189761905Y-88747286D01*
X189714286Y-88556810D01*
X189714286Y-88413952D01*
X189761905Y-88223476D01*
X189809524Y-88128238D01*
X189904762Y-88033000D01*
X190047620Y-87985381D01*
X190142858Y-87985381D01*
X190285715Y-88033000D01*
X190333334Y-88080619D01*
X190904762Y-88413952D02*
X190809524Y-88366333D01*
X190761905Y-88318714D01*
X190714286Y-88223476D01*
X190714286Y-88175857D01*
X190761905Y-88080619D01*
X190809524Y-88033000D01*
X190904762Y-87985381D01*
X191095239Y-87985381D01*
X191190477Y-88033000D01*
X191238096Y-88080619D01*
X191285715Y-88175857D01*
X191285715Y-88223476D01*
X191238096Y-88318714D01*
X191190477Y-88366333D01*
X191095239Y-88413952D01*
X190904762Y-88413952D01*
X190809524Y-88461571D01*
X190761905Y-88509190D01*
X190714286Y-88604429D01*
X190714286Y-88794905D01*
X190761905Y-88890143D01*
X190809524Y-88937762D01*
X190904762Y-88985381D01*
X191095239Y-88985381D01*
X191190477Y-88937762D01*
X191238096Y-88890143D01*
X191285715Y-88794905D01*
X191285715Y-88604429D01*
X191238096Y-88509190D01*
X191190477Y-88461571D01*
X191095239Y-88413952D01*
X168378143Y-101099857D02*
X168425762Y-101147476D01*
X168473381Y-101290333D01*
X168473381Y-101385571D01*
X168425762Y-101528429D01*
X168330524Y-101623667D01*
X168235286Y-101671286D01*
X168044810Y-101718905D01*
X167901952Y-101718905D01*
X167711476Y-101671286D01*
X167616238Y-101623667D01*
X167521000Y-101528429D01*
X167473381Y-101385571D01*
X167473381Y-101290333D01*
X167521000Y-101147476D01*
X167568619Y-101099857D01*
X168473381Y-100147476D02*
X168473381Y-100718905D01*
X168473381Y-100433191D02*
X167473381Y-100433191D01*
X167616238Y-100528429D01*
X167711476Y-100623667D01*
X167759095Y-100718905D01*
X167568619Y-99766524D02*
X167521000Y-99718905D01*
X167473381Y-99623667D01*
X167473381Y-99385571D01*
X167521000Y-99290333D01*
X167568619Y-99242714D01*
X167663857Y-99195095D01*
X167759095Y-99195095D01*
X167901952Y-99242714D01*
X168473381Y-99814143D01*
X168473381Y-99195095D01*
X172442143Y-82557857D02*
X172489762Y-82605476D01*
X172537381Y-82748333D01*
X172537381Y-82843571D01*
X172489762Y-82986429D01*
X172394524Y-83081667D01*
X172299286Y-83129286D01*
X172108810Y-83176905D01*
X171965952Y-83176905D01*
X171775476Y-83129286D01*
X171680238Y-83081667D01*
X171585000Y-82986429D01*
X171537381Y-82843571D01*
X171537381Y-82748333D01*
X171585000Y-82605476D01*
X171632619Y-82557857D01*
X172537381Y-81605476D02*
X172537381Y-82176905D01*
X172537381Y-81891191D02*
X171537381Y-81891191D01*
X171680238Y-81986429D01*
X171775476Y-82081667D01*
X171823095Y-82176905D01*
X171870714Y-80748333D02*
X172537381Y-80748333D01*
X171489762Y-80986429D02*
X172204048Y-81224524D01*
X172204048Y-80605476D01*
X150471381Y-84050095D02*
X149471381Y-84050095D01*
X149471381Y-83812000D01*
X149519000Y-83669142D01*
X149614238Y-83573904D01*
X149709476Y-83526285D01*
X149899952Y-83478666D01*
X150042810Y-83478666D01*
X150233286Y-83526285D01*
X150328524Y-83573904D01*
X150423762Y-83669142D01*
X150471381Y-83812000D01*
X150471381Y-84050095D01*
X150471381Y-82526285D02*
X150471381Y-83097714D01*
X150471381Y-82812000D02*
X149471381Y-82812000D01*
X149614238Y-82907238D01*
X149709476Y-83002476D01*
X149757095Y-83097714D01*
X161059905Y-76358381D02*
X161059905Y-75358381D01*
X161298000Y-75358381D01*
X161440858Y-75406000D01*
X161536096Y-75501238D01*
X161583715Y-75596476D01*
X161631334Y-75786952D01*
X161631334Y-75929810D01*
X161583715Y-76120286D01*
X161536096Y-76215524D01*
X161440858Y-76310762D01*
X161298000Y-76358381D01*
X161059905Y-76358381D01*
X162012286Y-75453619D02*
X162059905Y-75406000D01*
X162155143Y-75358381D01*
X162393239Y-75358381D01*
X162488477Y-75406000D01*
X162536096Y-75453619D01*
X162583715Y-75548857D01*
X162583715Y-75644095D01*
X162536096Y-75786952D01*
X161964667Y-76358381D01*
X162583715Y-76358381D01*
X175585381Y-101068095D02*
X174585381Y-101068095D01*
X174585381Y-100830000D01*
X174633000Y-100687142D01*
X174728238Y-100591904D01*
X174823476Y-100544285D01*
X175013952Y-100496666D01*
X175156810Y-100496666D01*
X175347286Y-100544285D01*
X175442524Y-100591904D01*
X175537762Y-100687142D01*
X175585381Y-100830000D01*
X175585381Y-101068095D01*
X174585381Y-100163333D02*
X174585381Y-99544285D01*
X174966333Y-99877619D01*
X174966333Y-99734761D01*
X175013952Y-99639523D01*
X175061571Y-99591904D01*
X175156810Y-99544285D01*
X175394905Y-99544285D01*
X175490143Y-99591904D01*
X175537762Y-99639523D01*
X175585381Y-99734761D01*
X175585381Y-100020476D01*
X175537762Y-100115714D01*
X175490143Y-100163333D01*
X169637381Y-96579905D02*
X168637381Y-96579905D01*
X169637381Y-96008476D02*
X169065952Y-96437048D01*
X168637381Y-96008476D02*
X169208810Y-96579905D01*
X169401667Y-102856095D02*
X169401667Y-102379904D01*
X169687381Y-102951333D02*
X168687381Y-102618000D01*
X169687381Y-102284666D01*
X158900905Y-100782381D02*
X158900905Y-99782381D01*
X159139000Y-99782381D01*
X159281858Y-99830000D01*
X159377096Y-99925238D01*
X159424715Y-100020476D01*
X159472334Y-100210952D01*
X159472334Y-100353810D01*
X159424715Y-100544286D01*
X159377096Y-100639524D01*
X159281858Y-100734762D01*
X159139000Y-100782381D01*
X158900905Y-100782381D01*
X160329477Y-100115714D02*
X160329477Y-100782381D01*
X160091381Y-99734762D02*
X159853286Y-100449048D01*
X160472334Y-100449048D01*
X156912095Y-99660381D02*
X156912095Y-98660381D01*
X157483524Y-99660381D02*
X157054952Y-99088952D01*
X157483524Y-98660381D02*
X156912095Y-99231810D01*
X150635905Y-99424667D02*
X151112096Y-99424667D01*
X150540667Y-99710381D02*
X150874000Y-98710381D01*
X151207334Y-99710381D01*
X158360381Y-66213333D02*
X159074667Y-66213333D01*
X159217524Y-66260953D01*
X159312762Y-66356191D01*
X159360381Y-66499048D01*
X159360381Y-66594286D01*
X159360381Y-65213333D02*
X159360381Y-65784762D01*
X159360381Y-65499048D02*
X158360381Y-65499048D01*
X158503238Y-65594286D01*
X158598476Y-65689524D01*
X158646095Y-65784762D01*
X178903334Y-67000381D02*
X178570000Y-66524190D01*
X178331905Y-67000381D02*
X178331905Y-66000381D01*
X178712858Y-66000381D01*
X178808096Y-66048000D01*
X178855715Y-66095619D01*
X178903334Y-66190857D01*
X178903334Y-66333714D01*
X178855715Y-66428952D01*
X178808096Y-66476571D01*
X178712858Y-66524190D01*
X178331905Y-66524190D01*
X179855715Y-67000381D02*
X179284286Y-67000381D01*
X179570000Y-67000381D02*
X179570000Y-66000381D01*
X179474762Y-66143238D01*
X179379524Y-66238476D01*
X179284286Y-66286095D01*
X157694334Y-87461381D02*
X157361000Y-86985190D01*
X157122905Y-87461381D02*
X157122905Y-86461381D01*
X157503858Y-86461381D01*
X157599096Y-86509000D01*
X157646715Y-86556619D01*
X157694334Y-86651857D01*
X157694334Y-86794714D01*
X157646715Y-86889952D01*
X157599096Y-86937571D01*
X157503858Y-86985190D01*
X157122905Y-86985190D01*
X158075286Y-86556619D02*
X158122905Y-86509000D01*
X158218143Y-86461381D01*
X158456239Y-86461381D01*
X158551477Y-86509000D01*
X158599096Y-86556619D01*
X158646715Y-86651857D01*
X158646715Y-86747095D01*
X158599096Y-86889952D01*
X158027667Y-87461381D01*
X158646715Y-87461381D01*
X204557381Y-71119905D02*
X205366905Y-71119905D01*
X205462143Y-71072286D01*
X205509762Y-71024667D01*
X205557381Y-70929429D01*
X205557381Y-70738952D01*
X205509762Y-70643714D01*
X205462143Y-70596095D01*
X205366905Y-70548476D01*
X204557381Y-70548476D01*
X205557381Y-69548476D02*
X205557381Y-70119905D01*
X205557381Y-69834191D02*
X204557381Y-69834191D01*
X204700238Y-69929429D01*
X204795476Y-70024667D01*
X204843095Y-70119905D01*
X187452095Y-67189381D02*
X187452095Y-67998905D01*
X187499714Y-68094143D01*
X187547333Y-68141762D01*
X187642571Y-68189381D01*
X187833048Y-68189381D01*
X187928286Y-68141762D01*
X187975905Y-68094143D01*
X188023524Y-67998905D01*
X188023524Y-67189381D01*
X188452095Y-67284619D02*
X188499714Y-67237000D01*
X188594952Y-67189381D01*
X188833048Y-67189381D01*
X188928286Y-67237000D01*
X188975905Y-67284619D01*
X189023524Y-67379857D01*
X189023524Y-67475095D01*
X188975905Y-67617952D01*
X188404476Y-68189381D01*
X189023524Y-68189381D01*
X184404095Y-92289381D02*
X184404095Y-93098905D01*
X184451714Y-93194143D01*
X184499333Y-93241762D01*
X184594571Y-93289381D01*
X184785048Y-93289381D01*
X184880286Y-93241762D01*
X184927905Y-93194143D01*
X184975524Y-93098905D01*
X184975524Y-92289381D01*
X185356476Y-92289381D02*
X185975524Y-92289381D01*
X185642190Y-92670333D01*
X185785048Y-92670333D01*
X185880286Y-92717952D01*
X185927905Y-92765571D01*
X185975524Y-92860810D01*
X185975524Y-93098905D01*
X185927905Y-93194143D01*
X185880286Y-93241762D01*
X185785048Y-93289381D01*
X185499333Y-93289381D01*
X185404095Y-93241762D01*
X185356476Y-93194143D01*
X169418095Y-76358381D02*
X169418095Y-77167905D01*
X169465714Y-77263143D01*
X169513333Y-77310762D01*
X169608571Y-77358381D01*
X169799048Y-77358381D01*
X169894286Y-77310762D01*
X169941905Y-77263143D01*
X169989524Y-77167905D01*
X169989524Y-76358381D01*
X170894286Y-76691714D02*
X170894286Y-77358381D01*
X170656190Y-76310762D02*
X170418095Y-77025048D01*
X171037143Y-77025048D01*
X160420381Y-94106905D02*
X161229905Y-94106905D01*
X161325143Y-94059286D01*
X161372762Y-94011667D01*
X161420381Y-93916429D01*
X161420381Y-93725952D01*
X161372762Y-93630714D01*
X161325143Y-93583095D01*
X161229905Y-93535476D01*
X160420381Y-93535476D01*
X160420381Y-92583095D02*
X160420381Y-93059286D01*
X160896571Y-93106905D01*
X160848952Y-93059286D01*
X160801333Y-92964048D01*
X160801333Y-92725952D01*
X160848952Y-92630714D01*
X160896571Y-92583095D01*
X160991810Y-92535476D01*
X161229905Y-92535476D01*
X161325143Y-92583095D01*
X161372762Y-92630714D01*
X161420381Y-92725952D01*
X161420381Y-92964048D01*
X161372762Y-93059286D01*
X161325143Y-93106905D01*
X181078143Y-93860857D02*
X181125762Y-93908476D01*
X181173381Y-94051333D01*
X181173381Y-94146571D01*
X181125762Y-94289429D01*
X181030524Y-94384667D01*
X180935286Y-94432286D01*
X180744810Y-94479905D01*
X180601952Y-94479905D01*
X180411476Y-94432286D01*
X180316238Y-94384667D01*
X180221000Y-94289429D01*
X180173381Y-94146571D01*
X180173381Y-94051333D01*
X180221000Y-93908476D01*
X180268619Y-93860857D01*
X181173381Y-92908476D02*
X181173381Y-93479905D01*
X181173381Y-93194191D02*
X180173381Y-93194191D01*
X180316238Y-93289429D01*
X180411476Y-93384667D01*
X180459095Y-93479905D01*
X180173381Y-92575143D02*
X180173381Y-91956095D01*
X180554333Y-92289429D01*
X180554333Y-92146571D01*
X180601952Y-92051333D01*
X180649571Y-92003714D01*
X180744810Y-91956095D01*
X180982905Y-91956095D01*
X181078143Y-92003714D01*
X181125762Y-92051333D01*
X181173381Y-92146571D01*
X181173381Y-92432286D01*
X181125762Y-92527524D01*
X181078143Y-92575143D01*
M02*
