M48
;DRILL file {KiCad 4.0.6} date Tuesday, 13 February 2018 20:19:30
;FORMAT={2:4/ absolute / inch / keep zeros}
FMAT,2
INCH,TZ
T1C0.020
T2C0.032
T3C0.040
T4C0.055
T5C0.126
%
G90
G05
M72
T1
X059600Y-040150
X060250Y-035350
X060250Y-036750
X060250Y-038100
X061149Y-036750
X061150Y-035350
X061150Y-038100
X062050Y-038100
X062100Y-035350
X062100Y-036750
X063109Y-028900
X065937Y-029650
X066400Y-033913
X066400Y-036763
X067800Y-033770
X069100Y-023920
X069250Y-029687
X069650Y-030500
X069650Y-030950
X069650Y-031400
X069650Y-031850
X069650Y-032300
X069800Y-035214
X070000Y-022450
X070150Y-024450
X070150Y-025400
X070150Y-026450
X070450Y-022800
X070450Y-027250
X070550Y-030500
X070550Y-030950
X070550Y-031400
X070550Y-031850
X070550Y-032300
X070600Y-024950
X070600Y-025950
X070850Y-026950
X071000Y-029687
X071100Y-023950
X071250Y-022800
X071363Y-033950
X071400Y-024350
X071413Y-025100
X071600Y-036250
X071600Y-037100
X072000Y-023000
X072800Y-022550
X073000Y-024850
X073250Y-024350
X074050Y-037700
X074250Y-024450
X075200Y-036113
X075600Y-023700
X075787Y-033950
X075800Y-022150
X076450Y-028550
X076450Y-035250
X077200Y-026713
X077200Y-029513
X077550Y-024450
X078100Y-024850
X078550Y-023400
X078650Y-027670
X078950Y-022400
X078950Y-023000
X079000Y-036250
X079000Y-037000
X080200Y-028609
X080200Y-035100
X080550Y-035650
X081350Y-023800
X081350Y-024350
X081350Y-032700
X081700Y-030600
X082400Y-035100
X082400Y-035600
X082400Y-036250
X082400Y-037000
X082900Y-023800
X083350Y-024350
X084500Y-032700
T2
X072489Y-032350
X074411Y-032350
T3
X065850Y-021350
X066850Y-021350
X067850Y-021350
X068850Y-021350
X069450Y-040350
X069850Y-021350
X070450Y-040350
X070850Y-021350
X071450Y-040350
X071850Y-021350
X072450Y-040350
X072850Y-021350
X073450Y-040350
X073850Y-021350
X074450Y-040350
X074850Y-021350
X075450Y-040350
X076450Y-021350
X076450Y-040350
X077450Y-021350
X078450Y-021350
X078450Y-040350
X079450Y-021350
X079450Y-040350
X080450Y-021350
X080450Y-040350
X081450Y-021350
X081450Y-040350
X082450Y-021350
X082450Y-040350
X083450Y-021350
X083450Y-040350
X083500Y-029350
X083500Y-030350
X083500Y-031350
X084500Y-029350
X084500Y-030350
X084500Y-031350
T4
X060200Y-022000
X060200Y-023969
X060200Y-025937
X060200Y-027906
X060200Y-029874
T5
X063950Y-040350
X064450Y-021350
X084450Y-027350
X084450Y-038350
T0
M30
